<svg width="504" height="610" viewBox="0 0 504 610" fill="none" xmlns="http://www.w3.org/2000/svg">
<path d="M283.061 101.561L282.807 101.327L203.637 192.511L191.125 157.25L163.944 173.211L124.073 145.87L107.385 185.208L107.813 185.318L124.193 146.534L163.849 173.696L190.915 157.818L203.486 193.286L203.737 193.022L283.061 101.561Z" fill="#ECECEC"/>
<path d="M310.214 142.674L251.787 165.997L211.015 120.935L210.917 120.922L163.886 123.827L220.153 79.5587L187.168 85.9505L187.19 86.3593L218.595 80.2538L162.624 124.31L210.84 121.317L251.592 166.477L251.75 166.449L309.467 143.381L288.987 192.402L289.126 192.472L337.579 224.711L298.79 251.745L249.219 236.696L249.043 237.077L298.753 252.197L298.871 252.112L338.25 224.653L338.072 224.527L289.481 192.217L310.214 142.674Z" fill="#ECECEC"/>
<path d="M329.176 263.26L364.183 289.362L364.223 289.418L363.308 335.03L413.954 320.81L414.17 320.74L420.221 368.437L362.667 352.56L362.529 352.49L362.858 335.522L311.191 350.053L325.282 310.424L293.734 308.535L284.124 260.441L245.774 285.67L245.536 285.333L284.415 259.724L294.066 308.127L325.909 310.058L311.915 349.448L362.993 335.087L363.889 289.573L328.015 262.997L391.833 257.89L334.446 236.23L334.621 235.851L393.701 258.151L329.176 263.26ZM363.038 352.208L419.825 367.877L413.917 321.26L363.369 335.493L363.038 352.208Z" fill="#ECECEC"/>
<path d="M466.529 321.327L466.314 321.397L397.477 341.007L389.809 288.333L389.575 288.501L344.467 319.119L318.372 276.177L318.157 276.247L265.451 304.344L265.569 304.511L291.475 340.694L291.826 340.442L266.038 304.426L318.12 276.694L344.313 319.65L344.488 319.524L389.519 289.046L397.127 341.51L397.342 341.44L466.179 321.83L471.458 381.605L420.894 368.049L420.835 368.091L378.39 395.614L378.411 395.767L392.946 453.421L348.45 453.576L321.327 412.299L321.211 412.383L275.562 432.373L294.029 470.631L294.419 470.434L276.09 432.498L321.134 412.774L348.179 453.94L348.276 453.954L393.515 453.853L378.821 395.724L420.955 368.509L471.949 382.177L466.529 321.327Z" fill="#ECECEC"/>
<path d="M281.577 135.813L281.381 135.785L237.439 118.398L211.719 149.224L211.798 149.336L237.47 184.681L212.396 215.295L172.642 204.088L178.833 242.655L197.789 232.304L197.61 231.926L179.144 242.094L173.194 204.619L212.555 215.771L212.633 215.631L237.98 184.652L237.901 184.54L212.229 149.194L237.539 118.916L280.971 136.081L261.043 172.102L288.647 201.418L252.748 212.322L252.807 212.532L264.42 240.618L224.637 279.456L264.997 294.276L265.171 293.898L225.381 279.258L264.91 240.687L264.89 240.533L253.298 212.601L289.413 201.626L261.553 172.073L281.577 135.813Z" fill="#ECECEC"/>
<path d="M109.37 185.214C110.441 184.359 110.727 182.891 109.959 181.929C109.192 180.968 107.705 180.86 106.576 181.757C105.504 182.612 105.219 184.08 105.986 185.042C106.754 186.003 108.299 186.069 109.37 185.214Z" fill="#ECECEC"/>
<path d="M165.923 174.524C166.994 173.669 167.28 172.201 166.512 171.24C165.745 170.278 164.258 170.17 163.128 171.067C162.057 171.922 161.771 173.39 162.539 174.352C163.306 175.314 164.793 175.421 165.923 174.524Z" fill="#ECECEC"/>
<path d="M238.654 186.018C239.725 185.163 240.011 183.695 239.243 182.733C238.476 181.771 236.989 181.663 235.859 182.56C234.788 183.415 234.502 184.883 235.27 185.845C236.037 186.807 237.583 186.873 238.654 186.018Z" fill="#ECECEC"/>
<path d="M262.753 174.337C263.824 173.482 264.11 172.014 263.342 171.053C262.575 170.091 261.088 169.983 259.959 170.88C258.888 171.735 258.602 173.203 259.369 174.165C260.195 175.084 261.682 175.192 262.753 174.337Z" fill="#ECECEC"/>
<path d="M282.979 105.38C284.05 104.525 284.336 103.057 283.568 102.095C282.801 101.134 281.314 101.026 280.184 101.923C279.055 102.82 278.827 104.246 279.595 105.208C280.421 106.127 281.907 106.235 282.979 105.38Z" fill="#ECECEC"/>
<path d="M219.01 80.9036C220.082 80.0485 220.367 78.5808 219.6 77.6189C218.832 76.657 217.346 76.5492 216.216 77.4463C215.145 78.3014 214.859 79.7691 215.626 80.731C216.394 81.6929 217.939 81.7587 219.01 80.9036Z" fill="#ECECEC"/>
<path d="M309.941 146.781C311.012 145.926 311.298 144.458 310.53 143.496C309.763 142.534 308.276 142.427 307.147 143.324C306.076 144.179 305.79 145.647 306.557 146.608C307.325 147.57 308.811 147.678 309.941 146.781Z" fill="#ECECEC"/>
<path d="M338.857 228.627C339.928 227.772 340.214 226.304 339.446 225.342C338.679 224.38 337.192 224.273 336.062 225.17C334.991 226.025 334.705 227.492 335.473 228.454C336.24 229.416 337.786 229.482 338.857 228.627Z" fill="#ECECEC"/>
<path d="M212.081 149.514C213.152 148.659 213.438 147.192 212.671 146.23C211.903 145.268 210.416 145.16 209.287 146.057C208.216 146.912 207.93 148.38 208.697 149.342C209.484 150.206 210.971 150.314 212.081 149.514Z" fill="#ECECEC"/>
<path d="M289.662 204.907C290.733 204.051 291.019 202.584 290.251 201.622C289.484 200.66 287.997 200.552 286.868 201.449C285.796 202.304 285.511 203.772 286.278 204.734C287.046 205.696 288.532 205.804 289.662 204.907Z" fill="#ECECEC"/>
<path d="M254.112 214.322C255.183 213.467 255.469 211.999 254.701 211.037C253.934 210.075 252.447 209.967 251.317 210.865C250.246 211.72 249.96 213.187 250.728 214.149C251.554 215.069 253.041 215.177 254.112 214.322Z" fill="#ECECEC"/>
<path d="M301.758 254.244C302.829 253.389 303.115 251.921 302.348 250.959C301.58 249.997 300.093 249.89 298.964 250.787C297.834 251.684 297.607 253.109 298.374 254.071C299.102 254.977 300.648 255.043 301.758 254.244Z" fill="#ECECEC"/>
<path d="M365.113 354.728C366.184 353.873 366.47 352.406 365.702 351.444C364.935 350.482 363.448 350.374 362.318 351.271C361.189 352.168 360.961 353.594 361.729 354.556C362.457 355.462 363.944 355.57 365.113 354.728Z" fill="#ECECEC"/>
<path d="M324.06 413.965C325.131 413.11 325.417 411.642 324.649 410.68C323.882 409.718 322.395 409.61 321.266 410.508C320.194 411.363 319.909 412.83 320.676 413.792C321.444 414.754 322.989 414.82 324.06 413.965Z" fill="#ECECEC"/>
<path d="M381.928 398.713C382.999 397.858 383.285 396.39 382.518 395.428C381.75 394.466 380.264 394.358 379.134 395.256C378.063 396.111 377.777 397.578 378.545 398.54C379.312 399.502 380.799 399.61 381.928 398.713Z" fill="#ECECEC"/>
<path d="M414.676 325.304C415.748 324.449 416.033 322.981 415.266 322.019C414.498 321.057 413.012 320.949 411.882 321.846C410.811 322.702 410.525 324.169 411.293 325.131C412.06 326.093 413.547 326.201 414.676 325.304Z" fill="#ECECEC"/>
<path d="M332.642 236.599C333.714 235.744 333.999 234.277 333.232 233.315C332.464 232.353 330.978 232.245 329.848 233.142C328.777 233.997 328.491 235.465 329.259 236.427C329.987 237.333 331.473 237.441 332.642 236.599Z" fill="#ECECEC"/>
<path d="M344.784 320.325C345.855 319.47 346.141 318.002 345.373 317.041C344.606 316.079 343.119 315.971 341.989 316.868C340.918 317.723 340.632 319.191 341.4 320.153C342.187 321.017 343.673 321.124 344.784 320.325Z" fill="#ECECEC"/>
<path d="M364.448 291.796C365.519 290.941 365.805 289.473 365.038 288.511C364.27 287.55 362.784 287.442 361.654 288.339C360.524 289.236 360.297 290.662 361.065 291.624C361.851 292.488 363.338 292.595 364.448 291.796Z" fill="#ECECEC"/>
<path d="M295.846 308.93C296.917 308.075 297.203 306.607 296.436 305.645C295.668 304.683 294.182 304.575 293.052 305.472C291.981 306.328 291.695 307.795 292.462 308.757C293.288 309.677 294.775 309.785 295.846 308.93Z" fill="#ECECEC"/>
<path d="M228.72 281.359C229.791 280.504 230.077 279.036 229.31 278.074C228.542 277.112 227.055 277.005 225.926 277.902C224.855 278.757 224.569 280.224 225.336 281.186C226.123 282.05 227.61 282.158 228.72 281.359Z" fill="#ECECEC"/>
<path d="M212.401 121.681C213.472 120.826 213.758 119.358 212.99 118.396C212.223 117.434 210.736 117.327 209.606 118.224C208.535 119.079 208.25 120.546 209.017 121.508C209.785 122.47 211.33 122.536 212.401 121.681Z" fill="#ECECEC"/>
<path d="M165.459 123.354C166.53 122.499 166.816 121.032 166.048 120.07C165.281 119.108 163.794 119 162.664 119.897C161.593 120.752 161.307 122.22 162.075 123.182C162.861 124.046 164.348 124.154 165.459 123.354Z" fill="#ECECEC"/>
<path d="M200.013 232.922C201.084 232.066 201.37 230.599 200.603 229.637C199.836 228.675 198.349 228.568 197.219 229.465C196.148 230.32 195.862 231.788 196.629 232.75C197.455 233.669 198.942 233.777 200.013 232.922Z" fill="#ECECEC"/>
<path d="M200.7 233.771C199.044 235.048 196.755 234.929 195.632 233.465C194.51 232.001 194.851 229.736 196.508 228.46C198.164 227.184 200.453 227.303 201.575 228.767C202.795 230.244 202.356 232.495 200.7 233.771ZM200.582 233.604C202.121 232.412 202.424 230.343 201.381 228.991C200.337 227.639 198.205 227.491 196.665 228.683C195.126 229.875 194.823 231.944 195.866 233.296C196.968 234.607 199.042 234.796 200.582 233.604Z" fill="#ECECEC"/>
<path d="M206.237 195.352C207.309 194.497 207.595 193.029 206.827 192.067C206.06 191.106 204.573 190.998 203.444 191.895C202.372 192.751 202.086 194.218 202.853 195.18C203.679 196.1 205.166 196.207 206.237 195.352Z" fill="#ECECEC"/>
<path d="M206.965 196.259C205.309 197.536 203.02 197.416 201.898 195.952C200.775 194.489 201.116 192.224 202.773 190.948C204.429 189.671 206.718 189.791 207.84 191.255C208.962 192.718 208.621 194.983 206.965 196.259ZM206.807 196.036C208.347 194.844 208.649 192.775 207.606 191.423C206.563 190.07 204.43 189.923 202.891 191.115C201.352 192.307 201.049 194.376 202.092 195.728C203.175 197.136 205.268 197.228 206.807 196.036Z" fill="#ECECEC"/>
<path d="M254.005 167.037C255.076 166.182 255.363 164.714 254.595 163.752C253.828 162.79 252.341 162.683 251.211 163.58C250.14 164.435 249.854 165.903 250.621 166.865C251.389 167.827 252.934 167.892 254.005 167.037Z" fill="#ECECEC"/>
<path d="M254.733 167.944C253.076 169.22 250.787 169.101 249.665 167.637C248.543 166.173 248.884 163.909 250.541 162.632C252.197 161.356 254.486 161.475 255.608 162.939C256.73 164.403 256.389 166.668 254.733 167.944ZM254.575 167.721C256.114 166.529 256.417 164.46 255.374 163.107C254.331 161.755 252.198 161.607 250.659 162.8C249.119 163.992 248.817 166.061 249.86 167.413C250.942 168.821 253.036 168.913 254.575 167.721Z" fill="#ECECEC"/>
<path d="M193.1 159.784C194.171 158.929 194.457 157.461 193.69 156.499C192.923 155.538 191.436 155.43 190.306 156.328C189.176 157.225 188.949 158.65 189.716 159.612C190.483 160.574 192.029 160.639 193.1 159.784Z" fill="#ECECEC"/>
<path d="M193.828 160.691C192.171 161.967 189.882 161.848 188.76 160.384C187.638 158.92 187.979 156.656 189.636 155.38C191.292 154.103 193.581 154.222 194.703 155.686C195.825 157.15 195.445 159.359 193.828 160.691ZM193.67 160.468C195.21 159.276 195.512 157.207 194.469 155.855C193.426 154.502 191.293 154.355 189.754 155.547C188.215 156.739 187.912 158.808 188.955 160.16C189.998 161.513 192.131 161.66 193.67 160.468Z" fill="#ECECEC"/>
<path d="M235.64 120.276C236.711 119.421 236.997 117.953 236.23 116.991C235.462 116.03 233.976 115.922 232.846 116.819C231.774 117.675 231.488 119.142 232.256 120.104C233.023 121.066 234.51 121.173 235.64 120.276Z" fill="#ECECEC"/>
<path d="M236.269 121.167C234.613 122.443 232.324 122.324 231.202 120.86C230.08 119.396 230.421 117.132 232.077 115.855C233.733 114.579 236.022 114.698 237.145 116.162C238.267 117.626 237.926 119.891 236.269 121.167ZM236.151 121C237.69 119.808 237.993 117.739 236.95 116.386C235.907 115.034 233.774 114.886 232.235 116.079C230.695 117.271 230.393 119.339 231.436 120.692C232.538 122.002 234.67 122.15 236.151 121Z" fill="#ECECEC"/>
<path d="M279.465 138.167C280.537 137.312 280.823 135.844 280.056 134.882C279.288 133.921 277.801 133.813 276.672 134.71C275.542 135.608 275.314 137.033 276.082 137.995C276.849 138.957 278.336 139.064 279.465 138.167Z" fill="#ECECEC"/>
<path d="M280.095 139.058C278.439 140.334 276.15 140.215 275.028 138.751C273.906 137.287 274.247 135.023 275.903 133.746C277.559 132.47 279.848 132.589 280.97 134.053C282.19 135.531 281.751 137.782 280.095 139.058ZM279.977 138.891C281.516 137.698 281.819 135.63 280.776 134.277C279.733 132.925 277.6 132.777 276.061 133.969C274.521 135.162 274.219 137.23 275.262 138.583C276.363 139.893 278.496 140.041 279.977 138.891Z" fill="#ECECEC"/>
<path d="M329.465 264.66C330.537 263.805 330.823 262.337 330.056 261.375C329.288 260.413 327.801 260.306 326.672 261.203C325.6 262.058 325.314 263.526 326.082 264.488C326.907 265.408 328.394 265.515 329.465 264.66Z" fill="#ECECEC"/>
<path d="M330.193 265.567C328.537 266.843 326.248 266.724 325.126 265.26C324.004 263.796 324.345 261.532 326.001 260.256C327.657 258.979 329.946 259.098 331.068 260.562C332.19 262.026 331.849 264.291 330.193 265.567ZM330.036 265.344C331.575 264.152 331.878 262.083 330.834 260.731C329.791 259.378 327.659 259.231 326.119 260.423C324.58 261.615 324.277 263.684 325.32 265.036C326.461 266.402 328.496 266.536 330.036 265.344Z" fill="#ECECEC"/>
<path d="M392.66 261.221C393.731 260.366 394.017 258.898 393.25 257.937C392.482 256.975 390.996 256.867 389.866 257.765C388.794 258.62 388.508 260.088 389.276 261.049C390.102 261.969 391.588 262.077 392.66 261.221Z" fill="#ECECEC"/>
<path d="M393.387 262.128C391.731 263.404 389.442 263.285 388.32 261.821C387.198 260.357 387.539 258.093 389.195 256.817C390.852 255.54 393.141 255.659 394.263 257.123C395.385 258.587 395.044 260.852 393.387 262.128ZM393.23 261.905C394.769 260.713 395.072 258.644 394.029 257.292C392.986 255.939 390.853 255.792 389.314 256.984C387.774 258.176 387.471 260.245 388.515 261.597C389.597 263.005 391.691 263.097 393.23 261.905Z" fill="#ECECEC"/>
<path d="M388.674 292.016C389.746 291.161 390.032 289.693 389.264 288.732C388.497 287.77 387.01 287.662 385.88 288.56C384.751 289.457 384.523 290.883 385.29 291.844C386.058 292.806 387.603 292.872 388.674 292.016Z" fill="#ECECEC"/>
<path d="M389.402 292.923C387.746 294.2 385.457 294.08 384.335 292.616C383.213 291.153 383.554 288.888 385.21 287.612C386.866 286.336 389.155 286.455 390.277 287.919C391.458 289.34 391.058 291.647 389.402 292.923ZM389.244 292.7C390.784 291.508 391.086 289.439 390.043 288.087C389 286.735 386.867 286.587 385.328 287.779C383.789 288.971 383.486 291.04 384.529 292.392C385.67 293.758 387.705 293.892 389.244 292.7Z" fill="#ECECEC"/>
<path d="M398.125 343.932C399.196 343.077 399.482 341.609 398.715 340.647C397.947 339.686 396.461 339.578 395.331 340.475C394.26 341.331 393.973 342.798 394.741 343.76C395.567 344.68 397.053 344.787 398.125 343.932Z" fill="#ECECEC"/>
<path d="M398.852 344.839C397.196 346.116 394.907 345.996 393.785 344.532C392.663 343.069 393.004 340.804 394.66 339.528C396.316 338.252 398.605 338.371 399.727 339.835C400.908 341.256 400.469 343.507 398.852 344.839ZM398.695 344.616C400.234 343.424 400.537 341.355 399.494 340.003C398.45 338.651 396.318 338.503 394.778 339.695C393.239 340.887 392.936 342.956 393.979 344.308C395.121 345.674 397.155 345.808 398.695 344.616Z" fill="#ECECEC"/>
<path d="M352.76 456.109C353.832 455.254 354.118 453.786 353.35 452.824C352.583 451.863 351.096 451.755 349.967 452.652C348.895 453.508 348.609 454.975 349.377 455.937C350.144 456.899 351.65 456.908 352.76 456.109Z" fill="#ECECEC"/>
<path d="M353.448 456.959C351.791 458.235 349.502 458.116 348.38 456.652C347.258 455.188 347.599 452.923 349.255 451.647C350.912 450.371 353.201 450.49 354.323 451.954C355.484 453.474 355.104 455.682 353.448 456.959ZM353.29 456.736C354.829 455.543 355.132 453.475 354.089 452.122C353.046 450.77 350.913 450.622 349.374 451.814C347.834 453.006 347.531 455.075 348.575 456.428C349.657 457.836 351.79 457.983 353.29 456.736Z" fill="#ECECEC"/>
<path d="M285.048 260.564C286.119 259.708 286.405 258.241 285.638 257.279C284.87 256.317 283.384 256.21 282.254 257.107C281.124 258.004 280.896 259.43 281.664 260.392C282.489 261.311 283.976 261.419 285.048 260.564Z" fill="#ECECEC"/>
<path d="M285.734 261.414C284.078 262.69 281.789 262.571 280.667 261.107C279.545 259.643 279.886 257.378 281.542 256.102C283.198 254.826 285.487 254.945 286.609 256.409C287.829 257.887 287.39 260.138 285.734 261.414ZM285.577 261.191C287.116 259.999 287.419 257.93 286.375 256.577C285.332 255.225 283.2 255.077 281.66 256.27C280.121 257.462 279.818 259.53 280.861 260.883C282.002 262.249 284.077 262.439 285.577 261.191Z" fill="#ECECEC"/>
<path d="M314.613 350.572C315.684 349.717 315.971 348.25 315.203 347.288C314.436 346.326 312.949 346.219 311.819 347.116C310.69 348.013 310.462 349.439 311.229 350.4C311.997 351.362 313.542 351.428 314.613 350.572Z" fill="#ECECEC"/>
<path d="M315.341 351.479C313.685 352.756 311.396 352.636 310.274 351.172C309.152 349.709 309.493 347.444 311.149 346.168C312.805 344.891 315.094 345.011 316.216 346.475C317.338 347.938 316.958 350.147 315.341 351.479ZM315.184 351.256C316.723 350.064 317.026 347.995 315.982 346.643C314.939 345.29 312.807 345.143 311.267 346.335C309.728 347.527 309.425 349.596 310.468 350.948C311.551 352.356 313.644 352.448 315.184 351.256Z" fill="#ECECEC"/>
<path d="M291.306 194.761C292.377 193.906 292.663 192.438 291.896 191.477C291.128 190.515 289.642 190.407 288.512 191.305C287.44 192.16 287.154 193.627 287.922 194.589C288.689 195.551 290.176 195.658 291.306 194.761Z" fill="#ECECEC"/>
<path d="M291.976 195.709C290.32 196.985 288.031 196.866 286.909 195.402C285.787 193.938 286.128 191.673 287.784 190.397C289.44 189.121 291.729 189.24 292.852 190.704C294.032 192.126 293.593 194.377 291.976 195.709ZM291.819 195.486C293.358 194.294 293.661 192.225 292.618 190.872C291.574 189.52 289.442 189.372 287.902 190.564C286.363 191.757 286.06 193.825 287.104 195.178C288.245 196.544 290.338 196.636 291.819 195.486Z" fill="#ECECEC"/>
<path d="M268.115 295.942C269.186 295.087 269.472 293.619 268.705 292.657C267.937 291.695 266.451 291.588 265.321 292.485C264.191 293.383 263.963 294.808 264.731 295.77C265.498 296.732 266.985 296.839 268.115 295.942Z" fill="#ECECEC"/>
<path d="M268.785 296.89C267.129 298.166 264.84 298.047 263.718 296.583C262.596 295.119 262.937 292.855 264.593 291.579C266.249 290.302 268.538 290.421 269.66 291.885C270.782 293.349 270.402 295.558 268.785 296.89ZM268.627 296.667C270.167 295.475 270.47 293.406 269.426 292.054C268.383 290.701 266.25 290.554 264.711 291.746C263.172 292.938 262.869 295.007 263.912 296.359C265.053 297.725 267.146 297.817 268.627 296.667Z" fill="#ECECEC"/>
<path d="M291.795 340.117C292.866 339.262 293.152 337.794 292.385 336.832C291.618 335.87 290.131 335.763 289.001 336.66C287.93 337.516 287.644 338.983 288.411 339.945C289.178 340.907 290.665 341.014 291.795 340.117Z" fill="#ECECEC"/>
<path d="M292.465 341.065C290.809 342.341 288.52 342.222 287.398 340.758C286.276 339.294 286.617 337.03 288.273 335.753C289.93 334.477 292.219 334.596 293.341 336.06C294.463 337.524 294.082 339.733 292.465 341.065ZM292.308 340.842C293.847 339.65 294.15 337.581 293.107 336.229C292.063 334.876 289.931 334.729 288.391 335.921C286.852 337.113 286.549 339.182 287.593 340.534C288.734 341.9 290.768 342.034 292.308 340.842Z" fill="#ECECEC"/>
<path d="M326.764 311.879C327.835 311.024 328.121 309.556 327.354 308.594C326.587 307.632 325.1 307.525 323.97 308.422C322.84 309.32 322.613 310.745 323.38 311.707C324.206 312.627 325.692 312.734 326.764 311.879Z" fill="#ECECEC"/>
<path d="M327.491 312.786C325.835 314.062 323.546 313.943 322.424 312.479C321.302 311.015 321.643 308.751 323.299 307.474C324.956 306.198 327.245 306.317 328.367 307.781C329.489 309.245 329.148 311.51 327.491 312.786ZM327.334 312.563C328.873 311.371 329.176 309.302 328.133 307.949C327.09 306.597 324.957 306.45 323.418 307.642C321.878 308.834 321.575 310.903 322.619 312.255C323.701 313.663 325.795 313.755 327.334 312.563Z" fill="#ECECEC"/>
<path d="M298.802 471.158C299.873 470.303 300.159 468.835 299.392 467.873C298.625 466.912 297.138 466.804 296.008 467.701C294.937 468.557 294.651 470.024 295.418 470.986C296.185 471.948 297.731 472.013 298.802 471.158Z" fill="#ECECEC"/>
<path d="M299.53 472.065C297.874 473.341 295.585 473.222 294.462 471.758C293.34 470.294 293.681 468.03 295.338 466.753C296.994 465.477 299.283 465.596 300.405 467.06C301.585 468.482 301.186 470.789 299.53 472.065ZM299.372 471.842C300.912 470.65 301.214 468.581 300.171 467.229C299.128 465.876 296.995 465.729 295.456 466.921C293.917 468.113 293.614 470.182 294.657 471.534C295.798 472.9 297.872 473.09 299.372 471.842Z" fill="#ECECEC"/>
<path d="M396.796 456.769C397.867 455.914 398.154 454.446 397.386 453.484C396.619 452.522 395.132 452.415 394.002 453.312C392.931 454.167 392.645 455.635 393.412 456.597C394.18 457.559 395.725 457.624 396.796 456.769Z" fill="#ECECEC"/>
<path d="M397.524 457.676C395.868 458.952 393.579 458.833 392.457 457.369C391.335 455.905 391.676 453.64 393.332 452.364C394.988 451.088 397.277 451.207 398.399 452.671C399.521 454.135 399.141 456.344 397.524 457.676ZM397.367 457.452C398.906 456.26 399.209 454.191 398.166 452.839C397.122 451.487 394.99 451.339 393.45 452.531C391.911 453.723 391.608 455.792 392.651 457.145C393.734 458.553 395.827 458.645 397.367 457.452Z" fill="#ECECEC"/>
<path d="M252.56 238.376C253.631 237.52 253.918 236.053 253.15 235.091C252.383 234.129 250.896 234.022 249.766 234.919C248.695 235.774 248.409 237.242 249.176 238.204C249.904 239.11 251.391 239.217 252.56 238.376Z" fill="#ECECEC"/>
<path d="M253.19 239.266C251.534 240.543 249.245 240.423 248.123 238.959C247.001 237.496 247.342 235.231 248.998 233.955C250.654 232.679 252.943 232.798 254.065 234.262C255.285 235.739 254.846 237.99 253.19 239.266ZM253.033 239.043C254.572 237.851 254.875 235.782 253.831 234.43C252.788 233.078 250.656 232.93 249.116 234.122C247.577 235.314 247.274 237.383 248.317 238.735C249.458 240.101 251.533 240.291 253.033 239.043Z" fill="#ECECEC"/>
<path d="M247.566 283.953C248.637 283.097 248.923 281.63 248.156 280.668C247.388 279.706 245.902 279.599 244.772 280.496C243.701 281.351 243.414 282.819 244.182 283.781C244.949 284.742 246.494 284.808 247.566 283.953Z" fill="#ECECEC"/>
<path d="M248.293 284.86C246.637 286.136 244.348 286.017 243.226 284.553C242.104 283.089 242.445 280.824 244.101 279.548C245.758 278.272 248.047 278.391 249.169 279.855C250.291 281.319 249.91 283.528 248.293 284.86ZM248.136 284.637C249.675 283.444 249.978 281.376 248.935 280.023C247.892 278.671 245.759 278.523 244.22 279.715C242.68 280.907 242.377 282.976 243.421 284.329C244.503 285.737 246.597 285.829 248.136 284.637Z" fill="#ECECEC"/>
<path d="M188.359 86.3044C189.43 85.4491 189.716 83.9815 188.949 83.0197C188.181 82.058 186.695 81.9505 185.565 82.8478C184.493 83.703 184.207 85.1707 184.975 86.1324C185.8 87.0521 187.287 87.1596 188.359 86.3044Z" fill="#ECECEC"/>
<path d="M189.086 87.2117C187.43 88.488 185.141 88.3688 184.019 86.9048C182.897 85.4409 183.238 83.1763 184.894 81.9001C186.55 80.6238 188.839 80.743 189.961 82.2069C191.083 83.6708 190.742 85.9354 189.086 87.2117ZM188.929 86.9886C190.468 85.7965 190.771 83.7276 189.727 82.3753C188.684 81.0229 186.551 80.8753 185.012 82.0674C183.473 83.2595 183.17 85.3283 184.213 86.6807C185.296 88.0889 187.389 88.1807 188.929 86.9886Z" fill="#ECECEC"/>
<path d="M153.088 254.815L153.048 254.51L244.552 216.884L220.701 197.612L240.315 180.591L229.957 141.948L264.73 139.448L264.712 139.794L230.404 142.21L240.703 180.646L221.205 197.583L245.232 216.979L244.961 217.091L153.088 254.815Z" fill="#66CBE2"/>
<path d="M177.748 286.711L211.316 247.129L187.503 203.12L187.522 203.022L202.396 166.86L153.182 199.182L166.931 175.035L167.267 175.133L154.145 198.15L203.123 165.998L187.918 203.077L211.771 247.142L211.693 247.283L178.477 286.357L221.754 283.433L221.794 283.489L233.667 330.139L264.888 307.016L266.549 264.137L266.904 264.136L265.224 307.114L265.165 307.156L233.452 330.717L233.392 330.506L221.479 283.8L177.748 286.711Z" fill="#66CBE2"/>
<path d="M245.519 382.436L244.161 330.093L244.476 330.036L245.767 380.905L266.829 332.204L277.829 367.468L313.158 378.974L337.897 342.752L303.766 343.228L310.813 317.708L276.088 297.149L306.253 273.5L306.451 273.78L276.697 297.133L311.186 317.609L304.217 342.988L338.544 342.54L313.513 379.225L326.661 383.538L326.642 383.637L323.466 433.073L288.304 415.532L288.382 415.392L312.964 379.451L277.575 367.735L277.536 367.679L266.794 333.158L245.519 382.436ZM313.278 379.394L288.813 415.25L323.148 432.372L326.288 383.638L313.278 379.394Z" fill="#66CBE2"/>
<path d="M275.017 456.565L275.153 456.383L308.677 407.614L270.201 387.459L270.377 387.333L306.078 360.122L280.017 328.088L280.095 327.948L315.882 294.117L315.96 294.228L336.928 324.294L336.636 324.504L315.786 294.606L280.467 328.1L306.528 360.135L306.353 360.261L270.807 387.443L309.204 407.487L309.087 407.571L275.544 456.437L320.139 476.645L323.27 433.271L323.387 433.186L355.927 407.242L356.025 407.255L396.548 434.179L408.576 399.284L384.077 366.966L384.155 366.826L411.805 336.329L436.306 361.161L436.112 361.385L411.808 336.831L384.488 366.923L408.947 399.185L408.927 399.283L396.687 434.751L355.949 407.647L323.642 433.423L320.494 477.147L275.017 456.565Z" fill="#66CBE2"/>
<path d="M180.508 262.462L180.488 262.308L178.903 223.125L209.56 211.185L209.639 211.297L229.967 240.955L260.235 229.464L262.264 195.273L290.406 210.45L277.304 222.578L277.107 222.299L289.779 210.564L262.561 195.818L260.589 229.715L260.491 229.702L229.793 241.334L229.753 241.278L209.425 211.62L179.257 223.377L180.839 262.055L213.958 256.104L229.167 285.651L247.205 260.352L247.324 260.52L265.764 277.112L306.42 256.288L307.027 291.957L306.674 291.958L306.07 256.794L265.688 277.504L265.648 277.448L247.208 260.857L229.091 286.295L213.783 256.483L180.508 262.462Z" fill="#66CBE2"/>
<path d="M264.417 141.507C263.442 142.125 262.268 141.96 261.735 141.081C261.203 140.202 261.529 139.042 262.465 138.368C263.44 137.751 264.614 137.915 265.147 138.794C265.679 139.673 265.392 140.89 264.417 141.507Z" fill="#66CBE2"/>
<path d="M238.286 182.317C238.873 183.148 240.108 183.276 241.044 182.602C241.98 181.928 242.263 180.708 241.676 179.876C241.088 179.045 239.853 178.917 238.917 179.59C237.981 180.264 237.698 181.485 238.286 182.317Z" fill="#66CBE2"/>
<path d="M227.817 241.98C228.404 242.812 229.64 242.94 230.576 242.266C231.512 241.592 231.795 240.372 231.207 239.54C230.62 238.708 229.385 238.58 228.449 239.254C227.512 239.928 227.23 241.148 227.817 241.98Z" fill="#66CBE2"/>
<path d="M214.922 257.926C213.947 258.544 212.772 258.379 212.24 257.501C211.707 256.622 212.034 255.461 212.969 254.788C213.944 254.17 215.119 254.335 215.651 255.213C216.223 256.148 215.896 257.309 214.922 257.926Z" fill="#66CBE2"/>
<path d="M155.916 255.27C154.942 255.887 153.767 255.723 153.235 254.844C152.702 253.965 153.029 252.804 153.964 252.131C154.939 251.513 156.114 251.678 156.646 252.557C157.179 253.436 156.793 254.638 155.916 255.27Z" fill="#66CBE2"/>
<path d="M153.903 198.908C152.928 199.526 151.754 199.361 151.221 198.482C150.689 197.603 151.016 196.443 151.951 195.769C152.926 195.152 154.1 195.316 154.633 196.195C155.263 197.088 154.878 198.291 153.903 198.908Z" fill="#66CBE2"/>
<path d="M180.882 287.226C179.907 287.844 178.733 287.679 178.201 286.8C177.668 285.921 177.995 284.76 178.93 284.087C179.905 283.47 181.079 283.634 181.612 284.513C182.184 285.448 181.857 286.608 180.882 287.226Z" fill="#66CBE2"/>
<path d="M234.137 331.327C234.724 332.159 235.959 332.287 236.896 331.613C237.832 330.94 238.115 329.719 237.527 328.887C236.94 328.056 235.705 327.928 234.768 328.601C233.832 329.275 233.549 330.496 234.137 331.327Z" fill="#66CBE2"/>
<path d="M206.483 211.486C207.07 212.318 208.305 212.446 209.242 211.772C210.178 211.098 210.461 209.878 209.873 209.046C209.286 208.214 208.051 208.086 207.115 208.76C206.178 209.434 205.896 210.654 206.483 211.486Z" fill="#66CBE2"/>
<path d="M231.554 287.031C230.58 287.649 229.405 287.484 228.873 286.605C228.34 285.726 228.667 284.566 229.602 283.892C230.577 283.275 231.752 283.439 232.284 284.318C232.817 285.197 232.529 286.414 231.554 287.031Z" fill="#66CBE2"/>
<path d="M248.329 261.945C247.354 262.563 246.179 262.398 245.647 261.52C245.114 260.641 245.441 259.48 246.376 258.807C247.351 258.189 248.526 258.354 249.058 259.232C249.649 260.069 249.304 261.328 248.329 261.945Z" fill="#66CBE2"/>
<path d="M266.686 309.661C265.711 310.279 264.536 310.114 264.004 309.235C263.471 308.356 263.798 307.196 264.733 306.522C265.708 305.905 266.883 306.069 267.415 306.948C267.948 307.827 267.621 308.988 266.686 309.661Z" fill="#66CBE2"/>
<path d="M327.918 385.78C326.943 386.397 325.769 386.233 325.236 385.354C324.704 384.475 325.031 383.314 325.966 382.641C326.941 382.024 328.115 382.188 328.648 383.067C329.18 383.946 328.893 385.162 327.918 385.78Z" fill="#66CBE2"/>
<path d="M385.02 369.695C384.045 370.313 382.87 370.148 382.338 369.269C381.805 368.39 382.132 367.23 383.067 366.556C384.042 365.939 385.217 366.103 385.749 366.982C386.282 367.861 385.936 369.12 385.02 369.695Z" fill="#66CBE2"/>
<path d="M357.686 410.685C356.711 411.303 355.537 411.138 355.004 410.259C354.472 409.381 354.798 408.22 355.734 407.547C356.709 406.929 357.883 407.094 358.415 407.972C358.948 408.851 358.621 410.012 357.686 410.685Z" fill="#66CBE2"/>
<path d="M291.822 416.548C290.847 417.165 289.673 417.001 289.14 416.122C288.607 415.243 288.934 414.082 289.87 413.409C290.845 412.791 292.019 412.956 292.551 413.835C293.084 414.714 292.757 415.874 291.822 416.548Z" fill="#66CBE2"/>
<path d="M244.739 328.949C243.764 329.567 242.589 329.402 242.057 328.523C241.524 327.645 241.851 326.484 242.786 325.811C243.761 325.193 244.936 325.357 245.468 326.236C246.001 327.115 245.616 328.318 244.739 328.949Z" fill="#66CBE2"/>
<path d="M306.566 360.82C305.591 361.438 304.416 361.273 303.884 360.394C303.351 359.515 303.678 358.355 304.614 357.681C305.588 357.064 306.763 357.228 307.295 358.107C307.886 358.944 307.501 360.147 306.566 360.82Z" fill="#66CBE2"/>
<path d="M279.064 368.459C278.089 369.077 276.915 368.912 276.382 368.033C275.85 367.154 276.177 365.994 277.112 365.32C278.087 364.703 279.261 364.867 279.794 365.746C280.424 366.639 280.039 367.842 279.064 368.459Z" fill="#66CBE2"/>
<path d="M310.808 319.749C309.833 320.366 308.659 320.202 308.126 319.323C307.594 318.444 307.92 317.283 308.856 316.61C309.791 315.937 311.005 316.157 311.538 317.036C312.129 317.872 311.744 319.075 310.808 319.749Z" fill="#66CBE2"/>
<path d="M307.286 260.064C306.311 260.682 305.137 260.517 304.604 259.638C304.072 258.759 304.399 257.599 305.334 256.925C306.309 256.308 307.483 256.472 308.016 257.351C308.548 258.23 308.261 259.447 307.286 260.064Z" fill="#66CBE2"/>
<path d="M187.424 204.658C186.449 205.275 185.275 205.111 184.742 204.232C184.21 203.353 184.537 202.192 185.472 201.519C186.447 200.901 187.621 201.066 188.154 201.945C188.726 202.879 188.399 204.04 187.424 204.658Z" fill="#66CBE2"/>
<path d="M198.556 168.231C199.143 169.063 200.378 169.191 201.315 168.517C202.251 167.843 202.534 166.623 201.946 165.791C201.359 164.959 200.124 164.831 199.187 165.505C198.251 166.179 197.968 167.399 198.556 168.231Z" fill="#66CBE2"/>
<path d="M277.285 224.8C276.31 225.418 275.136 225.254 274.603 224.375C274.071 223.496 274.398 222.335 275.333 221.662C276.308 221.044 277.482 221.209 278.015 222.088C278.547 222.966 278.26 224.183 277.285 224.8Z" fill="#66CBE2"/>
<path d="M273.687 224.95C272.879 223.681 273.339 221.835 274.782 220.88C276.225 219.926 278.026 220.228 278.874 221.553C279.682 222.823 279.222 224.669 277.779 225.623C276.297 226.522 274.495 226.219 273.687 224.95ZM278.699 221.679C277.93 220.466 276.266 220.233 274.94 221.103C273.614 221.973 273.133 223.666 273.902 224.879C274.671 226.093 276.335 226.326 277.661 225.456C278.947 224.53 279.428 222.837 278.699 221.679Z" fill="#66CBE2"/>
<path d="M243.692 219.262C244.279 220.093 245.515 220.221 246.451 219.547C247.387 218.873 247.67 217.653 247.083 216.821C246.496 215.99 245.26 215.862 244.324 216.536C243.388 217.21 243.105 218.43 243.692 219.262Z" fill="#66CBE2"/>
<path d="M242.795 219.739C241.986 218.47 242.447 216.624 243.89 215.67C245.333 214.715 247.134 215.017 247.981 216.343C248.79 217.612 248.329 219.458 246.886 220.413C245.443 221.367 243.642 221.065 242.795 219.739ZM247.806 216.469C247.037 215.255 245.373 215.023 244.047 215.893C242.721 216.763 242.24 218.455 243.009 219.669C243.778 220.883 245.442 221.115 246.768 220.245C248.094 219.375 248.575 217.683 247.806 216.469Z" fill="#66CBE2"/>
<path d="M211.602 249.167C210.627 249.785 209.453 249.62 208.92 248.741C208.388 247.863 208.715 246.702 209.65 246.028C210.625 245.411 211.8 245.575 212.332 246.454C212.904 247.389 212.577 248.549 211.602 249.167Z" fill="#66CBE2"/>
<path d="M208.004 249.317C207.196 248.047 207.656 246.201 209.099 245.247C210.542 244.292 212.343 244.595 213.191 245.92C213.999 247.189 213.539 249.035 212.096 249.99C210.653 250.944 208.852 250.642 208.004 249.317ZM213.016 246.046C212.247 244.832 210.583 244.6 209.257 245.47C207.931 246.34 207.45 248.033 208.219 249.246C208.988 250.46 210.652 250.693 211.978 249.822C213.304 248.952 213.784 247.26 213.016 246.046Z" fill="#66CBE2"/>
<path d="M219.563 199.476C220.15 200.307 221.385 200.435 222.322 199.761C223.258 199.087 223.541 197.867 222.954 197.035C222.366 196.204 221.131 196.076 220.195 196.75C219.259 197.424 218.976 198.644 219.563 199.476Z" fill="#66CBE2"/>
<path d="M218.608 199.995C217.799 198.726 218.26 196.88 219.703 195.925C221.146 194.971 222.947 195.273 223.795 196.598C224.603 197.868 224.142 199.714 222.699 200.668C221.256 201.623 219.455 201.32 218.608 199.995ZM223.678 196.682C222.909 195.469 221.245 195.236 219.919 196.106C218.593 196.977 218.112 198.669 218.881 199.883C219.65 201.096 221.314 201.329 222.64 200.459C223.966 199.588 224.446 197.896 223.678 196.682Z" fill="#66CBE2"/>
<path d="M177.437 222.039C178.025 222.87 179.26 222.998 180.196 222.324C181.132 221.65 181.415 220.43 180.828 219.598C180.241 218.766 179.006 218.639 178.069 219.313C177.133 219.987 176.85 221.207 177.437 222.039Z" fill="#66CBE2"/>
<path d="M176.539 222.517C175.731 221.247 176.191 219.401 177.634 218.447C179.077 217.493 180.879 217.795 181.726 219.12C182.534 220.389 182.074 222.235 180.631 223.19C179.188 224.144 177.387 223.842 176.539 222.517ZM181.551 219.246C180.782 218.033 179.118 217.8 177.792 218.67C176.466 219.54 175.985 221.233 176.754 222.446C177.523 223.66 179.187 223.893 180.513 223.023C181.839 222.152 182.32 220.46 181.551 219.246Z" fill="#66CBE2"/>
<path d="M179.652 260.917C180.24 261.748 181.475 261.876 182.411 261.202C183.348 260.528 183.63 259.308 183.043 258.476C182.456 257.645 181.221 257.517 180.284 258.191C179.348 258.865 179.065 260.085 179.652 260.917Z" fill="#66CBE2"/>
<path d="M178.754 261.395C177.946 260.126 178.406 258.28 179.849 257.325C181.292 256.371 183.093 256.673 183.941 257.998C184.749 259.268 184.289 261.114 182.846 262.068C181.403 263.022 179.562 262.664 178.754 261.395ZM183.766 258.124C182.997 256.911 181.333 256.678 180.007 257.548C178.681 258.419 178.2 260.111 178.969 261.325C179.738 262.538 181.402 262.771 182.728 261.901C184.054 261.03 184.535 259.338 183.766 258.124Z" fill="#66CBE2"/>
<path d="M267.347 334.034C266.372 334.652 265.197 334.487 264.665 333.608C264.132 332.73 264.459 331.569 265.395 330.895C266.37 330.278 267.544 330.442 268.077 331.321C268.668 332.158 268.322 333.416 267.347 334.034Z" fill="#66CBE2"/>
<path d="M263.806 334.143C262.998 332.873 263.458 331.027 264.901 330.073C266.344 329.119 268.145 329.421 268.993 330.746C269.801 332.015 269.34 333.861 267.898 334.816C266.455 335.77 264.595 335.51 263.806 334.143ZM268.817 330.872C268.048 329.659 266.384 329.426 265.058 330.296C263.733 331.166 263.252 332.859 264.021 334.072C264.789 335.286 266.453 335.519 267.779 334.648C269.105 333.778 269.586 332.086 268.817 330.872Z" fill="#66CBE2"/>
<path d="M247.765 382.259C246.79 382.876 245.615 382.712 245.083 381.833C244.551 380.954 244.877 379.794 245.813 379.12C246.788 378.503 247.962 378.667 248.495 379.546C249.125 380.438 248.74 381.641 247.765 382.259Z" fill="#66CBE2"/>
<path d="M244.224 382.368C243.416 381.098 243.876 379.252 245.319 378.298C246.762 377.343 248.563 377.646 249.411 378.971C250.219 380.24 249.759 382.086 248.316 383.041C246.873 383.995 245.013 383.735 244.224 382.368ZM249.235 379.097C248.467 377.883 246.803 377.651 245.477 378.521C244.151 379.391 243.67 381.083 244.439 382.297C245.208 383.511 246.872 383.743 248.198 382.873C249.523 382.003 250.004 380.311 249.235 379.097Z" fill="#66CBE2"/>
<path d="M272.83 387.401C271.855 388.019 270.68 387.855 270.148 386.976C269.616 386.097 269.942 384.936 270.878 384.263C271.853 383.645 273.027 383.81 273.56 384.688C274.092 385.567 273.805 386.784 272.83 387.401Z" fill="#66CBE2"/>
<path d="M269.232 387.551C268.423 386.282 268.884 384.436 270.327 383.481C271.77 382.527 273.571 382.829 274.419 384.154C275.227 385.424 274.766 387.27 273.324 388.224C271.881 389.178 270.079 388.876 269.232 387.551ZM274.243 384.28C273.474 383.067 271.81 382.834 270.484 383.704C269.158 384.575 268.678 386.267 269.447 387.481C270.215 388.694 271.879 388.927 273.205 388.057C274.531 387.186 275.012 385.494 274.243 384.28Z" fill="#66CBE2"/>
<path d="M310.663 408.62C309.688 409.238 308.514 409.073 307.981 408.195C307.449 407.316 307.776 406.155 308.711 405.482C309.686 404.864 310.861 405.028 311.393 405.907C311.965 406.842 311.638 408.002 310.663 408.62Z" fill="#66CBE2"/>
<path d="M307.065 408.77C306.257 407.501 306.717 405.655 308.16 404.7C309.603 403.746 311.405 404.048 312.252 405.373C313.06 406.643 312.6 408.489 311.157 409.443C309.773 410.355 307.913 410.095 307.065 408.77ZM312.077 405.499C311.308 404.286 309.644 404.053 308.318 404.923C306.992 405.794 306.511 407.486 307.28 408.7C308.049 409.913 309.713 410.146 311.039 409.276C312.423 408.363 312.846 406.713 312.077 405.499Z" fill="#66CBE2"/>
<path d="M407.416 402.955C408.003 403.787 409.238 403.915 410.174 403.241C411.111 402.567 411.394 401.346 410.806 400.515C410.219 399.683 408.984 399.555 408.048 400.229C407.111 400.903 406.828 402.124 407.416 402.955Z" fill="#66CBE2"/>
<path d="M406.517 403.433C405.709 402.164 406.17 400.318 407.613 399.363C409.055 398.409 410.857 398.711 411.704 400.037C412.513 401.306 412.052 403.152 410.609 404.106C409.127 405.005 407.326 404.703 406.517 403.433ZM411.529 400.163C410.76 398.949 409.096 398.716 407.77 399.587C406.444 400.457 405.963 402.149 406.732 403.363C407.501 404.576 409.165 404.809 410.491 403.939C411.778 403.013 412.258 401.321 411.529 400.163Z" fill="#66CBE2"/>
<path d="M273.327 298.006C273.915 298.837 275.15 298.965 276.086 298.291C277.022 297.617 277.305 296.397 276.718 295.565C276.131 294.734 274.896 294.606 273.959 295.28C273.023 295.954 272.74 297.174 273.327 298.006Z" fill="#66CBE2"/>
<path d="M272.429 298.484C271.621 297.215 272.081 295.369 273.524 294.414C274.967 293.46 276.769 293.762 277.616 295.088C278.424 296.357 277.964 298.203 276.521 299.157C275.078 300.112 273.277 299.81 272.429 298.484ZM277.441 295.214C276.672 294 275.008 293.767 273.682 294.638C272.356 295.508 271.875 297.2 272.644 298.414C273.413 299.627 275.077 299.86 276.403 298.99C277.729 298.12 278.21 296.427 277.441 295.214Z" fill="#66CBE2"/>
<path d="M338.184 345.412C337.209 346.03 336.035 345.865 335.502 344.987C334.97 344.108 335.297 342.947 336.232 342.274C337.207 341.656 338.382 341.82 338.914 342.699C339.447 343.578 339.159 344.794 338.184 345.412Z" fill="#66CBE2"/>
<path d="M334.586 345.562C333.778 344.292 334.238 342.446 335.681 341.492C337.124 340.537 338.925 340.839 339.773 342.165C340.581 343.434 340.121 345.28 338.678 346.235C337.293 347.147 335.434 346.887 334.586 345.562ZM339.597 342.291C338.829 341.077 337.165 340.845 335.839 341.715C334.513 342.585 334.032 344.277 334.801 345.491C335.57 346.705 337.234 346.937 338.56 346.067C339.944 345.155 340.366 343.505 339.597 342.291Z" fill="#66CBE2"/>
<path d="M223.229 285.64C222.254 286.258 221.08 286.094 220.547 285.215C220.015 284.336 220.342 283.175 221.277 282.502C222.252 281.884 223.427 282.049 223.959 282.927C224.492 283.806 224.165 284.967 223.229 285.64Z" fill="#66CBE2"/>
<path d="M219.632 285.79C218.823 284.52 219.284 282.674 220.727 281.72C222.17 280.765 223.971 281.068 224.818 282.393C225.627 283.662 225.166 285.508 223.723 286.463C222.299 287.319 220.44 287.059 219.632 285.79ZM224.604 282.463C223.835 281.25 222.171 281.017 220.845 281.887C219.519 282.758 219.038 284.45 219.807 285.663C220.576 286.877 222.24 287.11 223.566 286.24C224.892 285.369 225.372 283.677 224.604 282.463Z" fill="#66CBE2"/>
<path d="M305.456 294.311C306.043 295.143 307.278 295.271 308.214 294.597C309.151 293.923 309.434 292.702 308.846 291.871C308.259 291.039 307.024 290.911 306.088 291.585C305.151 292.259 304.868 293.48 305.456 294.311Z" fill="#66CBE2"/>
<path d="M304.558 294.789C303.75 293.52 304.21 291.674 305.653 290.719C307.096 289.765 308.897 290.067 309.745 291.392C310.553 292.662 310.093 294.508 308.65 295.462C307.167 296.361 305.366 296.059 304.558 294.789ZM309.569 291.519C308.801 290.305 307.137 290.072 305.811 290.943C304.485 291.813 304.004 293.505 304.773 294.719C305.542 295.932 307.206 296.165 308.532 295.295C309.818 294.369 310.299 292.677 309.569 291.519Z" fill="#66CBE2"/>
<path d="M333.483 324.514C334.071 325.346 335.306 325.473 336.242 324.799C337.178 324.125 337.461 322.905 336.874 322.073C336.287 321.242 335.052 321.114 334.115 321.788C333.179 322.462 332.896 323.682 333.483 324.514Z" fill="#66CBE2"/>
<path d="M332.585 324.992C331.777 323.722 332.237 321.876 333.68 320.922C335.123 319.967 336.925 320.27 337.772 321.595C338.58 322.864 338.12 324.71 336.677 325.665C335.234 326.619 333.433 326.317 332.585 324.992ZM337.597 321.721C336.828 320.508 335.164 320.275 333.838 321.145C332.512 322.015 332.031 323.708 332.8 324.921C333.569 326.135 335.233 326.368 336.559 325.497C337.885 324.627 338.366 322.935 337.597 321.721Z" fill="#66CBE2"/>
<path d="M302.158 344.199C302.745 345.03 303.98 345.158 304.916 344.484C305.853 343.81 306.136 342.59 305.548 341.758C304.961 340.927 303.726 340.799 302.789 341.473C301.853 342.147 301.57 343.367 302.158 344.199Z" fill="#66CBE2"/>
<path d="M301.259 344.677C300.451 343.408 300.912 341.562 302.354 340.607C303.797 339.653 305.599 339.955 306.446 341.28C307.255 342.55 306.794 344.396 305.351 345.35C303.908 346.304 302.068 345.946 301.259 344.677ZM306.271 341.406C305.502 340.193 303.838 339.96 302.512 340.83C301.186 341.701 300.705 343.393 301.474 344.606C302.243 345.82 303.907 346.053 305.233 345.183C306.559 344.312 307.04 342.62 306.271 341.406Z" fill="#66CBE2"/>
<path d="M436.223 365.411C435.248 366.029 434.074 365.864 433.542 364.986C433.009 364.107 433.336 362.946 434.272 362.273C435.247 361.655 436.421 361.819 436.953 362.698C437.544 363.535 437.198 364.793 436.223 365.411Z" fill="#66CBE2"/>
<path d="M432.683 365.519C431.875 364.25 432.335 362.404 433.778 361.45C435.221 360.495 437.022 360.797 437.87 362.123C438.678 363.392 438.218 365.238 436.775 366.192C435.292 367.091 433.433 366.831 432.683 365.519ZM437.694 362.249C436.926 361.035 435.262 360.803 433.936 361.673C432.61 362.543 432.129 364.235 432.898 365.449C433.667 366.663 435.331 366.895 436.657 366.025C437.943 365.099 438.424 363.407 437.694 362.249Z" fill="#66CBE2"/>
<path d="M398.823 437.741C397.848 438.359 396.674 438.195 396.141 437.316C395.609 436.437 395.936 435.276 396.871 434.603C397.846 433.985 399.021 434.15 399.553 435.028C400.183 435.921 399.798 437.124 398.823 437.741Z" fill="#66CBE2"/>
<path d="M395.225 437.891C394.417 436.622 394.877 434.776 396.32 433.821C397.763 432.867 399.564 433.169 400.412 434.494C401.22 435.764 400.76 437.61 399.317 438.564C397.933 439.476 396.073 439.216 395.225 437.891ZM400.295 434.578C399.526 433.365 397.862 433.132 396.536 434.002C395.21 434.872 394.73 436.565 395.499 437.778C396.267 438.992 397.931 439.225 399.257 438.355C400.583 437.484 401.006 435.834 400.295 434.578Z" fill="#66CBE2"/>
<path d="M267.508 267.062C266.533 267.679 265.359 267.515 264.826 266.636C264.294 265.757 264.621 264.596 265.556 263.923C266.531 263.305 267.706 263.47 268.238 264.349C268.81 265.283 268.425 266.486 267.508 267.062Z" fill="#66CBE2"/>
<path d="M263.91 267.211C263.102 265.942 263.562 264.096 265.005 263.142C266.448 262.187 268.249 262.489 269.097 263.815C269.945 265.14 269.445 266.93 268.002 267.884C266.559 268.839 264.758 268.537 263.91 267.211ZM268.922 263.941C268.153 262.727 266.489 262.494 265.163 263.365C263.837 264.235 263.356 265.927 264.125 267.141C264.894 268.355 266.558 268.587 267.884 267.717C269.21 266.847 269.691 265.154 268.922 263.941Z" fill="#66CBE2"/>
<path d="M301.569 275.088C302.156 275.919 303.392 276.047 304.328 275.373C305.264 274.699 305.547 273.479 304.96 272.647C304.373 271.816 303.137 271.688 302.201 272.362C301.265 273.036 300.982 274.256 301.569 275.088Z" fill="#66CBE2"/>
<path d="M300.671 275.566C299.863 274.297 300.323 272.45 301.766 271.496C303.209 270.542 305.01 270.844 305.858 272.169C306.666 273.439 306.206 275.285 304.763 276.239C303.378 277.151 301.519 276.891 300.671 275.566ZM305.682 272.295C304.914 271.082 303.25 270.849 301.924 271.719C300.598 272.589 300.117 274.282 300.886 275.495C301.655 276.709 303.319 276.942 304.645 276.072C306.029 275.159 306.451 273.509 305.682 272.295Z" fill="#66CBE2"/>
<path d="M166.342 176.572C165.367 177.189 164.193 177.025 163.661 176.146C163.128 175.267 163.455 174.107 164.39 173.433C165.365 172.816 166.54 172.98 167.072 173.859C167.605 174.738 167.278 175.898 166.342 176.572Z" fill="#66CBE2"/>
<path d="M162.744 176.721C161.936 175.452 162.396 173.606 163.839 172.652C165.282 171.697 167.083 171.999 167.931 173.325C168.739 174.594 168.279 176.44 166.836 177.394C165.412 178.251 163.552 177.991 162.744 176.721ZM167.716 173.395C166.947 172.181 165.284 171.949 163.958 172.819C162.632 173.689 162.151 175.381 162.92 176.595C163.689 177.809 165.352 178.042 166.678 177.171C168.063 176.259 168.485 174.609 167.716 173.395Z" fill="#66CBE2"/>
<path d="M311.845 380.239L311.983 380.557L220.439 418.128L244.33 437.455L224.658 454.518L235.074 493.119L200.242 495.661L200.26 495.315L234.587 492.802L224.328 454.422L243.729 437.471L219.799 418.088L220.07 417.976L311.845 380.239Z" fill="#C084B9"/>
<path d="M287.282 348.357L253.615 387.925L277.527 431.947L277.468 431.99L262.594 468.152L311.789 435.929L298.04 460.075L297.723 459.879L310.885 436.918L261.867 469.014L277.112 431.991L253.259 387.926L253.278 387.827L286.552 348.711L243.217 351.677L243.196 351.522L231.363 304.929L200.083 328.094L198.422 370.973L198.066 370.974L199.766 327.898L199.825 327.855L231.577 304.351L231.638 304.562L243.491 351.31L287.282 348.357Z" fill="#C084B9"/>
<path d="M219.51 252.632L220.868 304.975L220.554 305.032L219.262 254.163L198.201 302.864L187.2 267.6L151.871 256.094L127.133 292.316L161.263 291.84L154.216 317.36L188.941 337.919L158.777 361.568L158.579 361.287L188.332 337.935L153.844 317.459L160.812 292.08L126.486 292.528L151.516 255.842L138.369 251.529L138.388 251.431L141.564 201.995L176.726 219.535L176.648 219.676L152.065 255.616L187.434 267.178L187.474 267.234L198.215 301.755L219.51 252.632ZM151.751 255.673L176.216 219.818L141.882 202.695L138.742 251.43L151.751 255.673Z" fill="#C084B9"/>
<path d="M189.955 178.544L189.838 178.628L156.296 227.495L194.83 247.608L194.596 247.776L158.953 274.945L185.013 306.979L184.897 307.063L149.149 340.95L149.031 340.783L128.044 310.815L128.336 310.605L149.245 340.461L184.564 306.966L158.503 274.932L158.62 274.848L194.165 247.666L155.827 227.58L155.904 227.44L189.428 178.671L144.833 158.464L141.703 201.838L141.644 201.88L109.104 227.825L108.966 227.755L68.444 200.832L56.3969 235.824L80.9536 268.1L80.8761 268.24L53.1862 298.682L28.6271 273.892L28.9193 273.682L53.2231 298.235L80.5432 268.144L55.9865 235.868L56.045 235.825L68.2852 200.358L109.082 227.42L141.389 201.644L144.537 157.92L189.955 178.544Z" fill="#C084B9"/>
<path d="M284.522 372.605L284.542 372.759L286.127 411.942L255.47 423.882L255.391 423.771L235.062 394.112L204.697 405.59L202.708 439.837L174.624 424.618L187.667 412.531L187.923 412.769L175.192 424.546L202.469 439.249L204.382 405.394L204.5 405.31L235.198 393.678L235.277 393.79L255.605 423.448L285.714 411.733L284.19 373.012L251.013 379.006L235.863 349.417L217.824 374.715L217.647 374.59L199.168 357.942L158.551 378.821L158.003 343.11L158.317 343.053L158.862 378.26L199.244 357.549L199.382 357.619L217.822 374.211L235.938 348.772L251.246 378.585L284.522 372.605Z" fill="#C084B9"/>
<path d="M200.572 493.504C201.547 492.886 202.721 493.051 203.254 493.929C203.786 494.808 203.46 495.969 202.524 496.642C201.549 497.26 200.375 497.095 199.842 496.217C199.251 495.38 199.636 494.177 200.572 493.504Z" fill="#C084B9"/>
<path d="M224.044 452.422C225.019 451.805 226.194 451.969 226.726 452.848C227.259 453.727 226.932 454.888 225.997 455.561C225.022 456.179 223.847 456.014 223.315 455.135C222.724 454.298 223.07 453.04 224.044 452.422Z" fill="#C084B9"/>
<path d="M234.513 392.759C235.488 392.141 236.662 392.306 237.195 393.185C237.727 394.064 237.4 395.224 236.465 395.898C235.49 396.515 234.316 396.351 233.783 395.472C233.251 394.593 233.538 393.376 234.513 392.759Z" fill="#C084B9"/>
<path d="M249.377 379.853C249.964 380.685 251.2 380.813 252.136 380.139C253.072 379.465 253.355 378.245 252.767 377.413C252.18 376.581 250.945 376.453 250.009 377.127C249.072 377.801 248.79 379.022 249.377 379.853Z" fill="#C084B9"/>
<path d="M308.423 382.567C309.01 383.399 310.245 383.527 311.182 382.853C312.118 382.179 312.401 380.959 311.813 380.127C311.226 379.295 309.991 379.167 309.055 379.841C308.118 380.515 307.836 381.735 308.423 382.567Z" fill="#C084B9"/>
<path d="M310.338 438.913C310.925 439.744 312.161 439.872 313.097 439.199C314.033 438.525 314.316 437.304 313.728 436.473C313.141 435.641 311.906 435.513 310.97 436.187C310.033 436.86 309.751 438.081 310.338 438.913Z" fill="#C084B9"/>
<path d="M284.107 347.785C285.082 347.167 286.256 347.332 286.788 348.211C287.321 349.09 286.994 350.25 286.059 350.924C285.084 351.541 283.91 351.377 283.377 350.498C282.845 349.619 283.171 348.458 284.107 347.785Z" fill="#C084B9"/>
<path d="M228.152 303.354C229.127 302.737 230.302 302.901 230.834 303.78C231.367 304.659 231.04 305.82 230.105 306.493C229.13 307.111 227.955 306.946 227.423 306.067C226.89 305.188 227.217 304.028 228.152 303.354Z" fill="#C084B9"/>
<path d="M255.806 423.196C256.781 422.578 257.955 422.743 258.488 423.622C259.02 424.5 258.694 425.661 257.758 426.334C256.783 426.952 255.609 426.787 255.077 425.909C254.544 425.03 254.929 423.827 255.806 423.196Z" fill="#C084B9"/>
<path d="M232.785 350.806C233.372 351.637 234.607 351.765 235.544 351.092C236.48 350.418 236.763 349.197 236.175 348.366C235.588 347.534 234.353 347.406 233.417 348.08C232.48 348.754 232.197 349.974 232.785 350.806Z" fill="#C084B9"/>
<path d="M216.644 373.163C217.619 372.546 218.793 372.71 219.326 373.589C219.858 374.468 219.532 375.629 218.596 376.302C217.621 376.919 216.447 376.755 215.914 375.876C215.382 374.997 215.727 373.739 216.644 373.163Z" fill="#C084B9"/>
<path d="M198.344 325.407C199.319 324.789 200.493 324.954 201.026 325.833C201.558 326.712 201.232 327.872 200.296 328.546C199.321 329.163 198.147 328.999 197.614 328.12C197.023 327.283 197.369 326.024 198.344 325.407Z" fill="#C084B9"/>
<path d="M136.364 252.098C136.951 252.93 138.186 253.058 139.123 252.384C140.059 251.71 140.342 250.49 139.754 249.658C139.167 248.826 137.932 248.698 136.995 249.372C136.059 250.046 135.776 251.266 136.364 252.098Z" fill="#C084B9"/>
<path d="M79.3197 268.142C79.9071 268.973 81.1422 269.101 82.0785 268.428C83.0147 267.754 83.2974 266.533 82.7101 265.702C82.1227 264.87 80.8875 264.742 79.9513 265.416C79.0151 266.089 78.7323 267.31 79.3197 268.142Z" fill="#C084B9"/>
<path d="M106.596 227.192C107.184 228.024 108.419 228.152 109.355 227.478C110.291 226.804 110.574 225.584 109.987 224.752C109.399 223.92 108.164 223.792 107.228 224.466C106.292 225.14 106.009 226.361 106.596 227.192Z" fill="#C084B9"/>
<path d="M173.208 218.52C174.183 217.903 175.357 218.067 175.89 218.946C176.422 219.825 176.096 220.986 175.16 221.659C174.185 222.276 173.011 222.112 172.478 221.233C171.887 220.396 172.233 219.138 173.208 218.52Z" fill="#C084B9"/>
<path d="M219.601 308.888C220.188 309.719 221.423 309.847 222.359 309.173C223.296 308.5 223.578 307.279 222.991 306.447C222.404 305.616 221.169 305.488 220.232 306.162C219.296 306.835 219.013 308.056 219.601 308.888Z" fill="#C084B9"/>
<path d="M158.407 274.288C159.382 273.671 160.556 273.835 161.089 274.714C161.621 275.593 161.294 276.754 160.359 277.427C159.384 278.045 158.21 277.88 157.677 277.001C157.145 276.122 157.432 274.906 158.407 274.288Z" fill="#C084B9"/>
<path d="M185.867 266.593C186.842 265.975 188.017 266.14 188.549 267.019C189.082 267.897 188.755 269.058 187.82 269.731C186.845 270.349 185.67 270.185 185.138 269.306C184.605 268.427 184.932 267.266 185.867 266.593Z" fill="#C084B9"/>
<path d="M153.474 318.129C154.062 318.961 155.297 319.089 156.233 318.415C157.169 317.741 157.452 316.52 156.865 315.689C156.277 314.857 155.042 314.729 154.106 315.403C153.17 316.077 152.887 317.297 153.474 318.129Z" fill="#C084B9"/>
<path d="M156.996 377.814C157.583 378.645 158.818 378.773 159.755 378.099C160.691 377.426 160.974 376.205 160.386 375.373C159.799 374.542 158.564 374.414 157.628 375.088C156.691 375.761 156.409 376.982 156.996 377.814Z" fill="#C084B9"/>
<path d="M277.565 430.353C278.54 429.736 279.714 429.9 280.247 430.779C280.779 431.658 280.452 432.819 279.517 433.492C278.542 434.11 277.368 433.945 276.835 433.066C276.303 432.187 276.629 431.027 277.565 430.353Z" fill="#C084B9"/>
<path d="M263.734 466.451C264.709 465.833 265.883 465.997 266.415 466.876C266.948 467.755 266.621 468.916 265.686 469.589C264.711 470.207 263.537 470.042 263.004 469.163C262.472 468.285 262.798 467.124 263.734 466.451Z" fill="#C084B9"/>
<path d="M186.997 413.077C187.584 413.909 188.819 414.037 189.755 413.363C190.692 412.689 190.975 411.468 190.388 410.637C189.8 409.805 188.565 409.677 187.629 410.351C186.692 411.025 186.409 412.246 186.997 413.077Z" fill="#C084B9"/>
<path d="M191.343 410.118C192.151 411.387 191.691 413.233 190.248 414.188C188.805 415.142 187.004 414.84 186.156 413.515C185.348 412.245 185.808 410.399 187.251 409.445C188.636 408.532 190.535 408.848 191.343 410.118ZM186.331 413.388C187.1 414.602 188.764 414.835 190.09 413.964C191.416 413.094 191.897 411.402 191.128 410.188C190.359 408.975 188.695 408.742 187.369 409.612C185.985 410.524 185.563 412.175 186.331 413.388Z" fill="#C084B9"/>
<path d="M218.597 415.421C219.572 414.803 220.746 414.967 221.279 415.846C221.811 416.725 221.484 417.886 220.549 418.559C219.574 419.177 218.399 419.012 217.867 418.133C217.276 417.297 217.661 416.094 218.597 415.421Z" fill="#C084B9"/>
<path d="M222.195 415.271C223.003 416.54 222.543 418.386 221.1 419.341C219.657 420.295 217.856 419.993 217.008 418.668C216.2 417.398 216.66 415.552 218.103 414.598C219.527 413.741 221.387 414.002 222.195 415.271ZM217.164 418.639C217.933 419.853 219.597 420.086 220.923 419.216C222.249 418.345 222.73 416.653 221.961 415.439C221.192 414.226 219.528 413.993 218.202 414.863C216.876 415.734 216.454 417.384 217.164 418.639Z" fill="#C084B9"/>
<path d="M252.696 388.613C253.283 389.444 254.518 389.572 255.455 388.898C256.391 388.224 256.674 387.004 256.087 386.172C255.499 385.341 254.264 385.213 253.328 385.887C252.392 386.561 252.109 387.781 252.696 388.613Z" fill="#C084B9"/>
<path d="M256.985 385.694C257.793 386.963 257.333 388.809 255.89 389.764C254.447 390.718 252.646 390.416 251.798 389.091C250.99 387.821 251.45 385.975 252.893 385.021C254.317 384.164 256.177 384.424 256.985 385.694ZM252.013 389.02C252.782 390.234 254.446 390.467 255.772 389.596C257.098 388.726 257.578 387.034 256.81 385.82C256.041 384.607 254.377 384.374 253.051 385.244C251.725 386.114 251.244 387.807 252.013 389.02Z" fill="#C084B9"/>
<path d="M242.726 435.206C243.701 434.589 244.876 434.753 245.408 435.632C245.941 436.511 245.614 437.671 244.678 438.345C243.703 438.962 242.529 438.798 241.996 437.919C241.464 437.04 241.849 435.838 242.726 435.206Z" fill="#C084B9"/>
<path d="M246.324 435.057C247.132 436.326 246.672 438.172 245.229 439.127C243.786 440.081 241.985 439.779 241.137 438.454C240.329 437.184 240.789 435.338 242.232 434.384C243.715 433.485 245.516 433.787 246.324 435.057ZM241.352 438.383C242.121 439.597 243.785 439.83 245.111 438.959C246.437 438.089 246.918 436.397 246.149 435.183C245.38 433.969 243.716 433.737 242.39 434.607C241.064 435.477 240.583 437.169 241.352 438.383Z" fill="#C084B9"/>
<path d="M284.893 412.7C285.868 412.083 287.042 412.247 287.575 413.126C288.107 414.005 287.78 415.166 286.845 415.839C285.87 416.457 284.695 416.292 284.163 415.413C283.532 414.521 283.918 413.318 284.893 412.7Z" fill="#C084B9"/>
<path d="M288.491 412.551C289.299 413.82 288.839 415.667 287.396 416.621C285.953 417.575 284.152 417.273 283.304 415.948C282.496 414.679 282.956 412.832 284.399 411.878C285.783 410.966 287.643 411.226 288.491 412.551ZM283.421 415.864C284.19 417.077 285.854 417.31 287.18 416.44C288.506 415.57 288.986 413.877 288.217 412.664C287.449 411.45 285.785 411.217 284.459 412.087C283.133 412.958 282.71 414.608 283.421 415.864Z" fill="#C084B9"/>
<path d="M282.678 373.823C283.653 373.205 284.827 373.369 285.359 374.248C285.892 375.127 285.565 376.288 284.63 376.961C283.655 377.579 282.48 377.414 281.948 376.536C281.415 375.657 281.703 374.44 282.678 373.823Z" fill="#C084B9"/>
<path d="M286.276 373.673C287.084 374.943 286.624 376.789 285.181 377.743C283.738 378.697 281.936 378.395 281.089 377.07C280.281 375.801 280.741 373.955 282.184 373C283.568 372.088 285.428 372.348 286.276 373.673ZM281.264 376.944C282.033 378.157 283.697 378.39 285.023 377.52C286.349 376.65 286.83 374.957 286.061 373.744C285.292 372.53 283.628 372.297 282.302 373.168C280.918 374.08 280.495 375.73 281.264 376.944Z" fill="#C084B9"/>
<path d="M197.626 301.075C198.601 300.457 199.775 300.621 200.308 301.5C200.84 302.379 200.513 303.54 199.578 304.213C198.603 304.831 197.428 304.667 196.896 303.788C196.324 302.853 196.709 301.65 197.626 301.075Z" fill="#C084B9"/>
<path d="M201.224 300.925C202.032 302.195 201.572 304.041 200.129 304.995C198.686 305.95 196.885 305.647 196.037 304.322C195.229 303.053 195.689 301.207 197.132 300.252C198.575 299.298 200.376 299.6 201.224 300.925ZM196.213 304.196C196.981 305.41 198.645 305.642 199.971 304.772C201.297 303.902 201.778 302.209 201.009 300.996C200.24 299.782 198.576 299.549 197.25 300.42C195.924 301.29 195.444 302.982 196.213 304.196Z" fill="#C084B9"/>
<path d="M217.167 252.793C218.142 252.175 219.316 252.339 219.849 253.218C220.381 254.097 220.054 255.258 219.119 255.931C218.144 256.549 216.969 256.384 216.437 255.506C215.905 254.627 216.231 253.466 217.167 252.793Z" fill="#C084B9"/>
<path d="M220.765 252.643C221.573 253.913 221.113 255.759 219.67 256.713C218.227 257.668 216.425 257.365 215.578 256.04C214.77 254.771 215.23 252.925 216.673 251.97C218.155 251.072 219.956 251.374 220.765 252.643ZM215.793 255.97C216.562 257.183 218.225 257.416 219.551 256.546C220.877 255.676 221.358 253.983 220.589 252.77C219.82 251.556 218.157 251.323 216.831 252.194C215.505 253.064 215.024 254.756 215.793 255.97Z" fill="#C084B9"/>
<path d="M191.509 250.436C192.096 251.267 193.332 251.395 194.268 250.721C195.204 250.047 195.487 248.827 194.9 247.995C194.313 247.163 193.077 247.036 192.141 247.71C191.205 248.383 190.922 249.604 191.509 250.436Z" fill="#C084B9"/>
<path d="M195.798 247.517C196.606 248.787 196.146 250.633 194.703 251.587C193.26 252.541 191.459 252.239 190.611 250.914C189.803 249.645 190.263 247.799 191.706 246.844C193.091 245.932 194.95 246.192 195.798 247.517ZM190.787 250.788C191.555 252.001 193.219 252.234 194.545 251.364C195.871 250.494 196.352 248.801 195.583 247.588C194.814 246.374 193.15 246.141 191.824 247.011C190.44 247.924 190.018 249.574 190.787 250.788Z" fill="#C084B9"/>
<path d="M154.326 226.39C155.301 225.773 156.475 225.937 157.008 226.816C157.54 227.695 157.213 228.855 156.278 229.529C155.303 230.146 154.128 229.982 153.596 229.103C153.005 228.266 153.39 227.064 154.326 226.39Z" fill="#C084B9"/>
<path d="M157.867 226.282C158.675 227.551 158.214 229.397 156.772 230.351C155.329 231.306 153.527 231.004 152.68 229.678C151.872 228.409 152.332 226.563 153.775 225.609C155.257 224.71 157.117 224.97 157.867 226.282ZM152.895 229.608C153.663 230.821 155.327 231.054 156.653 230.184C157.979 229.314 158.46 227.621 157.691 226.408C156.922 225.194 155.258 224.961 153.933 225.832C152.607 226.702 152.126 228.394 152.895 229.608Z" fill="#C084B9"/>
<path d="M54.9142 231.785C55.8892 231.167 57.0636 231.331 57.596 232.21C58.1285 233.089 57.8016 234.25 56.866 234.923C55.8911 235.541 54.7167 235.376 54.1842 234.498C53.6518 233.619 53.9392 232.402 54.9142 231.785Z" fill="#C084B9"/>
<path d="M58.5124 231.635C59.3207 232.904 58.8602 234.75 57.4173 235.705C55.9744 236.659 54.1731 236.357 53.3255 235.032C52.5172 233.762 52.9777 231.916 54.4206 230.962C55.8635 230.007 57.6648 230.31 58.5124 231.635ZM53.501 234.905C54.2698 236.119 55.9337 236.352 57.2597 235.482C58.5857 234.611 59.0664 232.919 58.2976 231.705C57.5287 230.492 55.8648 230.259 54.5388 231.129C53.2128 231.999 52.7321 233.692 53.501 234.905Z" fill="#C084B9"/>
<path d="M189.003 336.733C189.978 336.116 191.152 336.28 191.684 337.159C192.217 338.037 191.89 339.198 190.954 339.872C189.979 340.489 188.805 340.325 188.272 339.446C187.642 338.554 188.028 337.351 189.003 336.733Z" fill="#C084B9"/>
<path d="M192.543 336.625C193.352 337.894 192.891 339.74 191.448 340.694C190.005 341.649 188.204 341.347 187.356 340.021C186.548 338.752 187.009 336.906 188.452 335.952C189.894 334.997 191.754 335.257 192.543 336.625ZM187.532 339.895C188.301 341.109 189.965 341.342 191.291 340.471C192.617 339.601 193.097 337.909 192.328 336.695C191.56 335.482 189.896 335.249 188.57 336.119C187.244 336.989 186.763 338.682 187.532 339.895Z" fill="#C084B9"/>
<path d="M126.098 292.465C126.685 293.297 127.92 293.425 128.857 292.751C129.793 292.077 130.076 290.856 129.489 290.025C128.901 289.193 127.666 289.065 126.73 289.739C125.794 290.413 125.511 291.634 126.098 292.465Z" fill="#C084B9"/>
<path d="M130.387 289.547C131.195 290.816 130.735 292.662 129.292 293.617C127.849 294.571 126.047 294.269 125.2 292.944C124.392 291.674 124.852 289.828 126.295 288.874C127.738 287.919 129.539 288.222 130.387 289.547ZM125.375 292.817C126.144 294.031 127.808 294.264 129.134 293.394C130.46 292.523 130.941 290.831 130.172 289.617C129.403 288.404 127.739 288.171 126.413 289.041C125.087 289.911 124.606 291.604 125.375 292.817Z" fill="#C084B9"/>
<path d="M241.053 352.237C241.64 353.069 242.875 353.197 243.812 352.523C244.748 351.849 245.031 350.628 244.444 349.797C243.856 348.965 242.621 348.837 241.685 349.511C240.748 350.185 240.465 351.405 241.053 352.237Z" fill="#C084B9"/>
<path d="M245.341 349.318C246.15 350.588 245.689 352.434 244.246 353.388C242.803 354.343 241.002 354.04 240.155 352.715C239.346 351.446 239.807 349.6 241.25 348.645C242.732 347.747 244.592 348.007 245.341 349.318ZM240.33 352.589C241.099 353.803 242.763 354.035 244.089 353.165C245.415 352.295 245.895 350.603 245.127 349.389C244.358 348.175 242.694 347.943 241.368 348.813C240.081 349.739 239.601 351.431 240.33 352.589Z" fill="#C084B9"/>
<path d="M156.874 340.427C157.849 339.81 159.024 339.974 159.556 340.853C160.089 341.732 159.762 342.892 158.826 343.566C157.851 344.184 156.677 344.019 156.144 343.14C155.553 342.304 155.899 341.045 156.874 340.427Z" fill="#C084B9"/>
<path d="M160.415 340.319C161.223 341.588 160.763 343.434 159.32 344.389C157.877 345.343 156.076 345.041 155.228 343.716C154.42 342.446 154.88 340.6 156.323 339.646C157.766 338.692 159.665 339.007 160.415 340.319ZM155.404 343.59C156.172 344.803 157.836 345.036 159.162 344.166C160.488 343.295 160.969 341.603 160.2 340.389C159.431 339.176 157.767 338.943 156.441 339.813C155.115 340.684 154.635 342.376 155.404 343.59Z" fill="#C084B9"/>
<path d="M128.847 310.226C129.822 309.608 130.996 309.772 131.529 310.651C132.061 311.53 131.734 312.691 130.799 313.364C129.824 313.982 128.649 313.817 128.117 312.939C127.486 312.046 127.872 310.843 128.847 310.226Z" fill="#C084B9"/>
<path d="M132.445 310.076C133.253 311.345 132.793 313.191 131.35 314.146C129.907 315.1 128.106 314.798 127.258 313.473C126.45 312.203 126.91 310.357 128.353 309.403C129.737 308.491 131.597 308.751 132.445 310.076ZM127.375 313.389C128.144 314.602 129.808 314.835 131.134 313.965C132.46 313.095 132.94 311.402 132.171 310.189C131.403 308.975 129.739 308.742 128.413 309.612C127.087 310.483 126.664 312.133 127.375 313.389Z" fill="#C084B9"/>
<path d="M160.173 290.54C161.148 289.923 162.322 290.087 162.854 290.966C163.387 291.845 163.06 293.005 162.125 293.679C161.15 294.296 159.975 294.132 159.443 293.253C158.91 292.374 159.198 291.158 160.173 290.54Z" fill="#C084B9"/>
<path d="M163.77 290.391C164.579 291.66 164.118 293.506 162.675 294.461C161.232 295.415 159.431 295.113 158.584 293.788C157.775 292.518 158.236 290.672 159.679 289.718C161.122 288.763 162.923 289.066 163.77 290.391ZM158.759 293.661C159.528 294.875 161.192 295.108 162.518 294.237C163.844 293.367 164.325 291.675 163.556 290.461C162.787 289.248 161.123 289.015 159.797 289.885C158.471 290.755 157.99 292.448 158.759 293.661Z" fill="#C084B9"/>
<path d="M28.0584 272.467C28.6457 273.298 29.8808 273.426 30.8172 272.752C31.7535 272.078 32.0364 270.858 31.4491 270.026C30.8618 269.195 29.6267 269.067 28.6904 269.741C27.7541 270.415 27.4711 271.635 28.0584 272.467Z" fill="#C084B9"/>
<path d="M32.347 269.548C33.1553 270.818 32.6948 272.664 31.2519 273.618C29.809 274.573 28.0078 274.27 27.1601 272.945C26.3519 271.676 26.8123 269.83 28.2552 268.875C29.6982 267.921 31.4994 268.223 32.347 269.548ZM27.3356 272.819C28.1044 274.032 29.7683 274.265 31.0943 273.395C32.4203 272.525 32.9011 270.832 32.1322 269.619C31.3633 268.405 29.6994 268.172 28.3734 269.043C27.0475 269.913 26.5667 271.605 27.3356 272.819Z" fill="#C084B9"/>
<path d="M65.4177 200.079C66.005 200.911 67.2401 201.039 68.1764 200.365C69.1127 199.691 69.3957 198.47 68.8084 197.639C68.2211 196.807 66.986 196.679 66.0497 197.353C65.1133 198.027 64.8304 199.248 65.4177 200.079Z" fill="#C084B9"/>
<path d="M69.7066 197.16C70.5149 198.43 70.0545 200.276 68.6115 201.23C67.1686 202.185 65.3674 201.882 64.5197 200.557C63.7114 199.288 64.1719 197.442 65.6148 196.487C67.0972 195.589 68.8984 195.891 69.7066 197.16ZM64.6952 200.431C65.464 201.644 67.128 201.877 68.4539 201.007C69.7799 200.137 70.2607 198.444 69.4918 197.231C68.723 196.017 67.059 195.784 65.733 196.655C64.4464 197.581 63.9657 199.273 64.6952 200.431Z" fill="#C084B9"/>
<path d="M197.481 367.949C198.456 367.331 199.63 367.496 200.162 368.375C200.695 369.253 200.368 370.414 199.432 371.088C198.458 371.705 197.283 371.541 196.751 370.662C196.218 369.783 196.545 368.623 197.481 367.949Z" fill="#C084B9"/>
<path d="M201.078 367.799C201.887 369.069 201.426 370.915 199.983 371.869C198.54 372.824 196.739 372.521 195.892 371.196C195.083 369.927 195.544 368.081 196.987 367.126C198.469 366.228 200.27 366.53 201.078 367.799ZM196.106 371.126C196.875 372.339 198.539 372.572 199.865 371.702C201.191 370.832 201.672 369.139 200.903 367.926C200.134 366.712 198.47 366.479 197.144 367.35C195.818 368.22 195.338 369.912 196.106 371.126Z" fill="#C084B9"/>
<path d="M160.72 359.594C161.695 358.977 162.87 359.141 163.402 360.02C163.935 360.899 163.608 362.059 162.672 362.733C161.697 363.35 160.523 363.186 159.99 362.307C159.399 361.471 159.785 360.268 160.72 359.594Z" fill="#C084B9"/>
<path d="M164.261 359.486C165.069 360.755 164.609 362.601 163.166 363.556C161.723 364.51 159.922 364.208 159.074 362.882C158.266 361.613 158.726 359.767 160.169 358.813C161.651 357.914 163.511 358.174 164.261 359.486ZM159.289 362.812C160.058 364.026 161.722 364.258 163.048 363.388C164.374 362.518 164.854 360.826 164.085 359.612C163.317 358.398 161.653 358.166 160.327 359.036C159.001 359.906 158.52 361.598 159.289 362.812Z" fill="#C084B9"/>
<path d="M297.94 461.306C298.527 462.138 299.762 462.266 300.699 461.592C301.635 460.918 301.918 459.697 301.33 458.865C300.743 458.034 299.508 457.906 298.572 458.58C297.635 459.254 297.352 460.474 297.94 461.306Z" fill="#C084B9"/>
<path d="M302.228 458.388C303.036 459.657 302.576 461.503 301.133 462.457C299.69 463.412 297.889 463.11 297.041 461.784C296.233 460.515 296.694 458.669 298.136 457.715C299.579 456.76 301.478 457.076 302.228 458.388ZM297.217 461.658C297.986 462.872 299.65 463.104 300.976 462.234C302.301 461.364 302.782 459.672 302.013 458.458C301.244 457.244 299.581 457.012 298.255 457.882C296.929 458.752 296.487 460.5 297.217 461.658Z" fill="#C084B9"/>
</svg>
