<svg width="12" height="20" viewBox="0 0 12 20" fill="none" xmlns="http://www.w3.org/2000/svg">
<path d="M1.49218 0.349609C1.70765 0.349609 2.00599 0.468427 2.25461 0.689089C5.32919 3.38795 8.41207 6.07832 11.4784 8.78567C12.1745 9.39673 12.1662 10.3218 11.4701 10.9329C8.37892 13.6487 5.28776 16.3561 2.1966 19.0634C1.62478 19.5641 0.812621 19.5047 0.331958 18.9361C-0.16528 18.3505 -0.0989815 17.5188 0.497703 16.9926C2.75185 15.0151 4.9977 13.0461 7.25185 11.0687C7.64135 10.7207 8.03085 10.3727 8.42864 10.0417C8.60267 9.89746 8.60267 9.82957 8.42864 9.6768C6.62201 8.08973 4.82367 6.51116 3.01704 4.92409C2.18831 4.19421 1.35129 3.47282 0.522565 2.73445C0.058477 2.31859 -0.0658324 1.75845 0.149637 1.21528C0.356819 0.689089 0.829195 0.358096 1.49218 0.349609Z" fill="#6D2E88"/>
</svg>
