<svg width="19" height="17" viewBox="0 0 19 17" fill="none" xmlns="http://www.w3.org/2000/svg">
<g clip-path="url(#clip0_483_2344)">
<path d="M7.67288e-05 6.17222C0.0893485 6.02093 0.0695103 5.84947 0.0992675 5.68809C0.481152 3.68097 1.56729 2.15294 3.28329 1.13929C5.83746 -0.368567 8.44122 -0.363524 11.0499 1.04348C11.1045 1.07373 11.1541 1.10904 11.2334 1.15947C10.921 1.19981 10.6433 1.21998 10.3655 1.27041C7.97502 1.68898 6.00112 2.8287 4.67196 4.91147C3.0006 7.53383 2.98076 10.252 4.48846 12.9752C4.5083 13.0156 4.5331 13.0509 4.5579 13.0963C4.53806 13.1013 4.51822 13.1114 4.51326 13.1064C4.26032 12.9248 4.03714 13.0358 3.80404 13.1618C2.85677 13.6611 1.90454 14.1452 0.952309 14.6394C0.674574 14.7806 0.451395 14.7706 0.262932 14.594C0.0595912 14.4075 0.0397531 14.1805 0.119106 13.9233C0.461314 12.8492 0.793603 11.775 1.13085 10.7008C1.16061 10.6151 1.18045 10.5395 1.11597 10.4386C0.510909 9.54599 0.138944 8.55756 0.029834 7.47332C0.0248744 7.4481 0.0199149 7.42289 -0.00488281 7.41784C-0.00488281 7.33211 -0.00488281 7.24134 -0.00488281 7.15561C0.0199149 7.13039 0.0199149 7.10518 -0.00488281 7.07996C-0.00488281 6.89337 -0.00488281 6.70174 -0.00488281 6.51514C0.0248744 6.48489 0.00999581 6.44454 0.0149554 6.40924C0.0149554 6.37898 0.0199149 6.34872 -0.00488281 6.32855C7.67288e-05 6.27308 7.67288e-05 6.22265 7.67288e-05 6.17222Z" fill="#ACACAC"/>
<path d="M19.0002 9.12759C18.9853 10.3783 18.6332 11.5634 17.924 12.6325C17.8446 12.7535 17.8248 12.8493 17.8694 12.9905C18.2116 14.0597 18.5439 15.1288 18.8762 16.1979C18.9953 16.5761 18.8366 16.8938 18.4943 16.9846C18.3257 17.03 18.1819 16.9745 18.0331 16.8989C17.0214 16.3744 16.0096 15.855 15.0028 15.3255C14.8689 15.2549 14.7648 15.2549 14.6259 15.3053C11.8734 16.324 9.29439 16.0063 6.97829 14.1555C5.27716 12.7939 4.43404 10.9582 4.53323 8.73928C4.61755 6.93388 5.37636 5.42602 6.69559 4.22578C8.21817 2.83896 10.0284 2.19849 12.0569 2.29935C14.5961 2.42039 16.6395 3.51472 18.043 5.71347C18.6977 6.73721 18.9953 7.87693 19.0002 9.12759Z" fill="#ACACAC"/>
</g>
<defs>
<clipPath id="clip0_483_2344">
<rect width="19" height="17" fill="white"/>
</clipPath>
</defs>
</svg>
