<svg width="19" height="19" viewBox="0 0 19 19" fill="none" xmlns="http://www.w3.org/2000/svg">
<g clip-path="url(#clip0_483_2381)">
<path d="M0 17.1102C0 12.5402 0 7.96552 0 3.39548C0.0882425 2.57808 0.548032 2.03005 1.25862 1.66779C1.55121 1.51917 1.86703 1.45879 2.18748 1.44951C2.39184 1.44486 2.59619 1.44951 2.80054 1.44951C3.04204 1.44951 3.05598 1.44022 3.05598 1.20335C3.05598 0.88754 3.05133 0.571724 3.05598 0.255909C3.06062 0.0190477 3.07455 0.00511469 3.30677 0.00511469C3.67832 0.00511469 4.04987 0.00511469 4.41677 0.00511469C4.62576 0.00511469 4.64434 0.0190477 4.64899 0.237332C4.65363 0.529925 4.64899 0.817875 4.64899 1.11047C4.64899 1.44951 4.64899 1.44951 4.97873 1.44951C5.93547 1.44951 6.8922 1.44951 7.85358 1.44951C9.87851 1.44951 11.9081 1.44951 13.933 1.44951C13.9934 1.44951 14.0584 1.44486 14.1188 1.44951C14.2721 1.45879 14.3231 1.38448 14.3231 1.24051C14.3185 0.906117 14.3185 0.571724 14.3231 0.241976C14.3278 0.0283364 14.3464 0.00975903 14.5554 0.00975903C14.9362 0.00975903 15.3217 0.0190477 15.7025 0.00511469C15.8651 0.000470344 15.9115 0.0654911 15.9162 0.209466C15.9208 0.543858 15.9162 0.878251 15.9208 1.208C15.9208 1.43557 15.9394 1.44486 16.167 1.44951C16.5013 1.45879 16.8357 1.42164 17.1655 1.4913C17.9875 1.6585 18.5495 2.13687 18.8792 2.90318C18.9814 3.1354 18.9954 3.38155 18.9954 3.6277C18.9954 8.04447 18.9907 12.4612 19 16.878C19 17.8765 18.2755 18.6475 17.5603 18.9076C17.407 18.9633 17.2491 18.9773 17.0865 18.9819C17.0122 18.9912 16.9379 18.9633 16.8636 19.0005C11.9452 19.0005 7.02689 19.0005 2.10853 19.0005C2.04815 18.9633 1.98313 18.9912 1.91811 18.9819C1.49083 18.9958 1.13786 18.8101 0.817404 18.5639C0.506233 18.3224 0.274016 18.0112 0.116109 17.649C0.0510878 17.4725 0.0417991 17.2914 0 17.1102Z" fill="#ACACAC"/>
<path d="M9.48854 6.99C12.094 6.99 14.7041 6.99 17.3096 6.98535C17.4629 6.98535 17.5 7.01786 17.5 7.17577C17.4954 10.3386 17.4954 13.5014 17.4954 16.6641C17.4954 17.2308 17.2074 17.5187 16.6408 17.5187C11.8711 17.5187 7.10134 17.5187 2.33625 17.5187C1.77429 17.5187 1.4817 17.2308 1.4817 16.6641C1.4817 13.5014 1.4817 10.3386 1.47705 7.17577C1.47705 7.01786 1.51885 6.98535 1.66747 6.99C4.27759 6.99464 6.88306 6.99 9.48854 6.99Z" fill="#FEFEFE"/>
<path d="M9.4883 5.50844C6.88283 5.50844 4.27735 5.50844 1.66723 5.51308C1.51861 5.51308 1.47217 5.48522 1.47217 5.32731C1.4861 4.82108 1.47681 4.31485 1.47681 3.80861C1.47681 3.29309 1.77869 2.99121 2.29422 2.99121C2.52179 2.99121 2.74936 2.99585 2.98158 2.98657C3.0884 2.98192 3.11626 3.01443 3.11162 3.12125C3.10698 3.52995 3.11162 3.93865 3.10698 4.34271C3.10698 4.44953 3.13484 4.4774 3.24166 4.47275C3.65036 4.46811 4.05907 4.46811 4.46312 4.47275C4.56994 4.47275 4.59781 4.44489 4.59316 4.33807C4.58852 3.9433 4.59781 3.54853 4.58852 3.15376C4.58388 3.01443 4.62568 2.98192 4.76036 2.98192C7.68165 2.98657 10.6029 2.98657 13.5242 2.98657C13.7611 2.98657 13.9933 2.99121 14.2302 2.98192C14.3463 2.97728 14.3881 3.00514 14.3834 3.13054C14.3741 3.52995 14.3881 3.93401 14.3788 4.33342C14.3741 4.46346 14.4299 4.46811 14.5274 4.46811C14.9222 4.46346 15.3169 4.46346 15.7117 4.46811C15.8278 4.46811 15.8696 4.44489 15.865 4.31949C15.8557 3.92008 15.865 3.51602 15.8603 3.11661C15.8603 3.01443 15.8836 2.97728 15.9904 2.98192C16.2505 2.99121 16.5105 2.97728 16.7706 2.98657C17.1747 3.0005 17.4859 3.30703 17.4905 3.71108C17.4998 4.27305 17.4905 4.83501 17.4951 5.39698C17.4951 5.51308 17.4394 5.50844 17.3605 5.50844C16.7428 5.50844 16.1251 5.50844 15.5074 5.50844C13.5057 5.50844 11.4993 5.50844 9.4883 5.50844Z" fill="#FEFEFE"/>
<path d="M3.55755 8.55029C3.76654 8.55029 3.97554 8.55494 4.18918 8.55029C4.27742 8.54565 4.30064 8.57816 4.30064 8.6664C4.296 9.08439 4.296 9.50702 4.30064 9.92501C4.30064 10.0133 4.27277 10.0365 4.18453 10.0365C3.76654 10.0318 3.34391 10.0318 2.92592 10.0365C2.83767 10.0365 2.81445 10.0086 2.81445 9.92037C2.8191 9.50238 2.8191 9.07975 2.81445 8.66176C2.81445 8.57351 2.84232 8.54565 2.93056 8.55029C3.13956 8.55029 3.34855 8.55029 3.55755 8.55029Z" fill="#ACACAC"/>
<path d="M7.26354 9.289C7.26354 9.49799 7.25889 9.70699 7.26354 9.92063C7.26818 10.0089 7.23567 10.0321 7.14743 10.0321C6.72944 10.0274 6.3068 10.0274 5.88881 10.0321C5.80057 10.0321 5.77734 10.0042 5.77734 9.91598C5.78199 9.49799 5.78199 9.07535 5.77734 8.65736C5.77734 8.56912 5.80521 8.5459 5.89345 8.5459C6.31144 8.55054 6.73408 8.55054 7.15207 8.5459C7.24032 8.5459 7.26818 8.57376 7.26354 8.66201C7.26354 8.871 7.26354 9.08 7.26354 9.289Z" fill="#ACACAC"/>
<path d="M8.75 9.27018C8.75 9.06583 8.75464 8.86148 8.75 8.65712C8.74536 8.56888 8.77322 8.54102 8.86146 8.54102C9.27945 8.54566 9.70209 8.54566 10.1201 8.54102C10.2083 8.54102 10.2362 8.56424 10.2315 8.65248C10.2269 9.07047 10.2269 9.49311 10.2315 9.9111C10.2315 9.99934 10.2083 10.0272 10.1201 10.0226C9.70209 10.0179 9.27945 10.0179 8.86146 10.0226C8.77322 10.0226 8.74536 9.99934 8.75 9.9111C8.75464 9.7021 8.75 9.48846 8.75 9.27018Z" fill="#ACACAC"/>
<path d="M13.1991 9.29387C13.1991 9.49822 13.1944 9.70257 13.1991 9.90692C13.1991 9.99516 13.1898 10.037 13.083 10.037C12.665 10.0277 12.2423 10.0323 11.8244 10.037C11.7315 10.037 11.7129 10.0045 11.7129 9.92085C11.7175 9.50287 11.7175 9.08023 11.7129 8.66224C11.7129 8.56936 11.7454 8.55078 11.829 8.55078C12.247 8.55543 12.6696 8.55543 13.0876 8.55078C13.1805 8.55078 13.1991 8.58329 13.1991 8.66689C13.1944 8.87124 13.1991 9.08488 13.1991 9.29387Z" fill="#ACACAC"/>
<path d="M16.1622 9.29803C16.1622 9.50703 16.1576 9.71602 16.1622 9.92966C16.1622 10.0086 16.139 10.0365 16.06 10.0318C15.6328 10.0272 15.2055 10.0272 14.7828 10.0318C14.7039 10.0318 14.676 10.0086 14.6807 9.92966C14.6853 9.50238 14.6853 9.0751 14.6807 8.65247C14.6807 8.57352 14.7039 8.54565 14.7828 8.5503C15.2101 8.55494 15.6374 8.55494 16.06 8.5503C16.139 8.5503 16.1669 8.57352 16.1622 8.65247C16.1576 8.86611 16.1622 9.08439 16.1622 9.29803Z" fill="#ACACAC"/>
<path d="M4.30064 12.2613C4.30064 12.461 4.296 12.6561 4.30064 12.8558C4.30529 12.9626 4.28671 13.0044 4.16595 13.0044C3.75725 12.9951 3.34855 12.9951 2.94449 13.0044C2.83303 13.0044 2.81445 12.9673 2.81445 12.8651C2.8191 12.4564 2.8191 12.0477 2.81445 11.6436C2.81445 11.5322 2.85161 11.5136 2.95378 11.5182C3.36248 11.5229 3.77119 11.5229 4.17524 11.5182C4.28671 11.5182 4.30529 11.5554 4.30064 11.6575C4.296 11.8526 4.30064 12.057 4.30064 12.2613Z" fill="#ACACAC"/>
<path d="M6.52507 11.5142C6.73407 11.5142 6.94306 11.5188 7.1567 11.5142C7.24495 11.5095 7.27281 11.5374 7.26817 11.6256C7.26352 12.0436 7.26352 12.4662 7.26817 12.8842C7.26817 12.9725 7.24495 13.0003 7.1567 12.9957C6.73871 12.9911 6.31608 12.9911 5.89809 12.9957C5.80984 12.9957 5.78198 12.9725 5.78662 12.8842C5.79127 12.4662 5.79127 12.0436 5.78662 11.6256C5.78662 11.5374 5.80984 11.5095 5.89809 11.5142C6.10244 11.5188 6.31608 11.5142 6.52507 11.5142Z" fill="#ACACAC"/>
<path d="M8.75 12.2387C8.75 12.0343 8.75464 11.83 8.75 11.6256C8.74536 11.5374 8.77322 11.5095 8.86146 11.5142C9.27945 11.5188 9.70209 11.5188 10.1201 11.5142C10.2083 11.5142 10.2362 11.5374 10.2315 11.6256C10.2269 12.0436 10.2269 12.4662 10.2315 12.8842C10.2315 12.9725 10.2083 13.0003 10.1201 12.9957C9.70209 12.9911 9.27945 12.9911 8.86146 12.9957C8.77322 12.9957 8.74536 12.9725 8.75 12.8842C8.75464 12.6706 8.75 12.4523 8.75 12.2387Z" fill="#ACACAC"/>
<path d="M12.4703 12.9953C12.2613 12.9953 12.0523 12.9907 11.8386 12.9953C11.7504 12.9953 11.7086 12.9814 11.7132 12.8746C11.7179 12.4612 11.7179 12.0479 11.7132 11.6345C11.7132 11.5463 11.7272 11.5045 11.834 11.5091C12.2473 11.5138 12.6607 11.5138 13.074 11.5091C13.1623 11.5091 13.2041 11.5231 13.1994 11.6299C13.1948 12.0432 13.1901 12.4566 13.1994 12.8699C13.1994 12.9814 13.1576 13 13.0601 12.9953C12.865 12.9907 12.6653 12.9953 12.4703 12.9953Z" fill="#ACACAC"/>
<path d="M15.4333 12.995C15.2243 12.995 15.0153 12.9903 14.8017 12.995C14.7088 12.9996 14.6763 12.9764 14.6763 12.8742C14.6809 12.4609 14.6809 12.0475 14.6763 11.6342C14.6763 11.5413 14.6948 11.5088 14.797 11.5088C15.2104 11.5134 15.6237 11.5134 16.0371 11.5088C16.1299 11.5088 16.1625 11.5274 16.1625 11.6295C16.1578 12.0429 16.1532 12.4562 16.1625 12.8696C16.1625 12.9857 16.1207 12.9996 16.0231 12.995C15.8281 12.9903 15.633 12.995 15.4333 12.995Z" fill="#ACACAC"/>
<path d="M3.56243 14.4814C3.76678 14.4814 3.97113 14.4861 4.17548 14.4814C4.26373 14.4814 4.30552 14.4907 4.30552 14.5976C4.29624 15.0155 4.30088 15.4382 4.30552 15.8562C4.30552 15.9491 4.27301 15.9676 4.18942 15.9676C3.77143 15.963 3.34879 15.963 2.9308 15.9676C2.83791 15.9676 2.81934 15.9351 2.81934 15.8515C2.82398 15.4335 2.82398 15.0109 2.81934 14.5929C2.81934 14.5 2.85185 14.4814 2.93544 14.4814C3.14444 14.4814 3.35343 14.4814 3.56243 14.4814Z" fill="#ACACAC"/>
<path d="M7.26353 15.2245C7.26353 15.4289 7.25889 15.6332 7.26353 15.8376C7.26353 15.9258 7.25424 15.9676 7.14742 15.9676C6.72943 15.9583 6.3068 15.963 5.88881 15.9676C5.79592 15.9676 5.77734 15.9351 5.77734 15.8515C5.78199 15.4335 5.78199 15.0109 5.77734 14.5929C5.77734 14.5 5.80985 14.4814 5.89345 14.4814C6.31144 14.4861 6.73408 14.4861 7.15207 14.4814C7.24496 14.4814 7.26353 14.514 7.26353 14.5976C7.26353 14.8065 7.26353 15.0155 7.26353 15.2245Z" fill="#ACACAC"/>
<path d="M9.4976 14.4811C9.70196 14.4811 9.90631 14.4858 10.1107 14.4811C10.1989 14.4765 10.2407 14.495 10.2361 14.6019C10.2314 15.0152 10.2314 15.4286 10.2361 15.8419C10.2361 15.9301 10.2221 15.9719 10.1153 15.9673C9.70196 15.9627 9.28861 15.9627 8.87526 15.9673C8.78702 15.9673 8.74522 15.9534 8.74986 15.8465C8.7545 15.4332 8.75915 15.0199 8.74986 14.6065C8.74986 14.495 8.79166 14.4765 8.88919 14.4811C9.0889 14.4858 9.29325 14.4811 9.4976 14.4811Z" fill="#ACACAC"/>
<path d="M13.1993 15.2204C13.1993 15.4294 13.1947 15.6384 13.1993 15.852C13.204 15.9402 13.1761 15.9681 13.0878 15.9635C12.6699 15.9588 12.2472 15.9588 11.8292 15.9635C11.741 15.9635 11.7131 15.9402 11.7178 15.852C11.7224 15.434 11.7224 15.0114 11.7178 14.5934C11.7178 14.5052 11.741 14.4773 11.8292 14.4819C12.2472 14.4866 12.6699 14.4866 13.0878 14.4819C13.1761 14.4819 13.204 14.5052 13.1993 14.5934C13.1947 14.8024 13.1993 15.0114 13.1993 15.2204Z" fill="#ACACAC"/>
</g>
<defs>
<clipPath id="clip0_483_2381">
<rect width="19" height="19" fill="white"/>
</clipPath>
</defs>
</svg>
