<svg width="9" height="19" viewBox="0 0 9 19" fill="none" xmlns="http://www.w3.org/2000/svg">
<path d="M2.61628 6.95507H3.11628C3.11628 6.95543 3.11628 6.95578 3.11628 6.95614C3.11628 6.95708 3.11628 6.95805 3.11628 6.95905C3.11635 7.03142 3.11661 7.2733 2.92743 7.45444C2.74797 7.62628 2.51728 7.62423 2.45886 7.62372C2.45616 7.62369 2.45382 7.62367 2.45188 7.62367H2.44864L2.44864 7.62366C2.06772 7.6212 1.68535 7.62119 1.30109 7.62119H1.30021C1.03454 7.62119 0.767953 7.62119 0.501391 7.62037C0.504229 8.41145 0.504233 9.20518 0.501402 9.99924C0.717273 9.99888 0.930341 9.99929 1.14238 9.99971C1.57134 10.0005 1.99609 10.0014 2.43127 9.9957L2.43779 9.99562V9.99566L2.44171 9.99566C2.51741 9.99558 2.77337 9.99533 2.9575 10.203C3.0496 10.3068 3.0849 10.4202 3.1001 10.4974C3.11464 10.5712 3.11628 10.6413 3.11628 10.6891V10.6899C3.11176 13.2962 3.11158 15.8979 3.11158 18.5C3.8501 18.4999 4.58658 18.4994 5.32438 18.497L4.29577 1.28467M2.61628 6.95507C2.61776 6.63576 2.61362 6.31595 2.60949 5.99595C2.60052 5.30221 2.59154 4.60761 2.63976 3.91533C2.71961 2.74009 3.08598 1.69379 3.96434 0.910297M2.61628 6.95507C2.61628 7.09888 2.5787 7.12367 2.45188 7.12367M2.61628 6.95507L2.45188 7.12367M3.96434 0.910297L4.29435 1.28592C4.29483 1.2855 4.2953 1.28508 4.29577 1.28467M3.96434 0.910297L4.29717 1.28343C4.2967 1.28384 4.29624 1.28425 4.29577 1.28467M3.96434 0.910297C4.6642 0.295406 5.49089 0.0375484 6.38334 0.00779564M4.29577 1.28467C4.8913 0.762072 5.59885 0.534227 6.39999 0.507519L6.40122 0.507476C7.09286 0.482724 7.79002 0.522192 8.49815 0.584465C8.49857 0.475698 8.49906 0.366923 8.49962 0.258148L8.49967 0.248663L8.50007 0.239223C8.50004 0.240017 8.49977 0.246677 8.50053 0.257704C8.50054 0.257852 8.50055 0.258002 8.50056 0.258153C8.50134 0.269375 8.50339 0.288035 8.50912 0.311653C8.52165 0.363211 8.55133 0.435162 8.6152 0.500667C8.67689 0.563931 8.74205 0.5919 8.77812 0.603641C8.79874 0.610354 8.81438 0.613204 8.8203 0.614104L8.85768 0.259972L8.85825 0.254608L8.87279 0.116889M6.38334 0.00779564L6.38334 0.00789385L6.38334 0.00779564ZM6.38334 0.00779564C7.21472 -0.0219572 8.0461 0.0375484 8.87279 0.116889M8.87279 0.116889L8.85957 0.254665L8.85906 0.259979L8.82502 0.614602C8.82393 0.614498 8.82284 0.614393 8.82175 0.614289L8.99961 3.02275C8.99491 2.10537 8.99491 1.18303 8.99961 0.260694C9.00431 0.151601 8.96673 0.126807 8.87279 0.116889ZM2.45188 7.12367C2.06906 7.12119 1.68508 7.12119 1.30109 7.12119C0.917105 7.12119 0.533119 7.12119 0.150307 7.11872M2.45188 7.12367L2.43779 10.4957C2.00298 10.5013 1.56817 10.5005 1.13336 10.4997C0.807239 10.4991 0.481121 10.4985 0.155004 10.5006C0.0328796 10.5006 0 10.4758 0 10.3419M0.150307 7.11872C0.0234854 7.11872 0 7.15343 0 7.28235M0.150307 7.11872L0.149251 7.28167M0.150307 7.11872V7.28166L0.499295 7.28005C0.500057 7.27387 0.500238 7.27029 0.500226 7.27027C0.500214 7.27024 0.500016 7.27365 0.500001 7.2814L0.149251 7.28167M0 7.28235C0.00469708 8.29891 0.00469708 9.32042 0 10.3419M0 7.28235H0.149247L0.147068 7.6187C0.147579 7.61871 0.14809 7.61871 0.148601 7.61871M0 7.28235L0.149251 7.28167M0 10.3419L0.153974 10.3426L0.153722 10.0006C0.148749 10.0006 0.14651 10.0005 0.146554 10.0005C0.146593 10.0004 0.148429 10.0005 0.151746 10.0008L0.15397 10.3419H0ZM0.499797 10.3442L0.155004 10.3426L0.499797 10.3442ZM0.499797 10.3442C0.499921 10.3456 0.500007 10.3466 0.500065 10.3475M0.499797 10.3442L0.500165 10.3496C0.500152 10.3496 0.500105 10.349 0.500065 10.3475M0.500065 10.3475C0.500034 10.3464 0.500007 10.3448 0.500001 10.3428L0.500065 10.3475ZM0.149251 7.28167L0.148601 7.61871M0.148601 7.61871C0.14854 7.61872 0.148479 7.61872 0.148419 7.61873M0.148601 7.61871L0.145671 7.61882C0.145639 7.6188 0.146522 7.61875 0.148419 7.61873M0.148419 7.61873C0.148664 7.61872 0.148925 7.61872 0.149203 7.61872L0.148419 7.61873ZM0.155004 10.3419V10.0011C0.161904 10.0018 0.172644 10.0033 0.185775 10.0061C0.22456 10.0146 0.3053 10.0398 0.381037 10.1138C0.456977 10.1879 0.484252 10.2684 0.493684 10.3084C0.497147 10.3231 0.498804 10.3348 0.499567 10.3419H0.155004ZM0.150307 7.28235H0.498999C0.498414 7.28674 0.497566 7.29217 0.49635 7.29839C0.490496 7.32831 0.470769 7.4051 0.403663 7.48169C0.332596 7.5628 0.250066 7.59667 0.200476 7.60971C0.176665 7.61598 0.158431 7.618 0.150307 7.6186V7.28235Z" fill="#010140" stroke="#010140"/>
</svg>
