<svg width="40" height="40" viewBox="0 0 40 40" fill="none" xmlns="http://www.w3.org/2000/svg">
<circle cx="20" cy="20" r="19.5" stroke="white"/>
<path d="M18.6022 29C18.6069 28.9405 18.6116 28.876 18.6116 28.8165C18.6116 26.109 18.6116 23.4015 18.6163 20.6891C18.6163 20.5353 18.5881 20.4957 18.4378 20.4957C17.6769 20.5056 16.9159 20.4957 16.155 20.5006C16.0329 20.5006 16 20.4758 16 20.3419C16.0047 19.3204 16.0047 18.2989 16 17.2824C16 17.1534 16.0235 17.1187 16.1503 17.1187C16.9159 17.1237 17.6863 17.1187 18.4519 17.1237C18.5787 17.1237 18.6163 17.0989 18.6163 16.9551C18.621 15.9435 18.5693 14.9269 18.6398 13.9153C18.7196 12.7401 19.086 11.6938 19.9643 10.9103C20.6642 10.2954 21.4909 10.0375 22.3833 10.0078C23.2147 9.97804 24.0461 10.0375 24.8728 10.1169C24.9667 10.1268 25.0043 10.1516 24.9996 10.2607C24.9949 11.183 24.9949 12.1054 24.9996 13.0227C24.9996 13.1517 24.9526 13.1566 24.854 13.1566C24.3796 13.1517 23.9052 13.1566 23.4308 13.1566C23.2617 13.1566 23.0926 13.1666 22.9235 13.1864C22.2659 13.2756 21.8854 13.6723 21.8385 14.3765C21.7821 15.2592 21.8291 16.1468 21.815 17.0295C21.815 17.1584 21.8901 17.1286 21.9559 17.1286C22.8155 17.1286 23.6797 17.1336 24.5393 17.1237C24.699 17.1237 24.7272 17.1584 24.7084 17.322C24.5863 18.2791 24.4782 19.2361 24.3655 20.1882C24.3279 20.5006 24.3373 20.5006 24.0508 20.5006C23.3603 20.5006 22.6699 20.5056 21.9794 20.4957C21.8667 20.4957 21.8197 20.5105 21.8197 20.6494C21.8244 23.3866 21.8244 26.1289 21.8244 28.8661C21.8244 28.9107 21.8338 28.9504 21.8385 28.995C20.7581 29 19.6825 29 18.6022 29Z" fill="white"/>
</svg>
