<svg width="40" height="40" viewBox="0 0 40 40" fill="none" xmlns="http://www.w3.org/2000/svg">
<circle cx="20" cy="20" r="19.5" stroke="white"/>
<path d="M13.0035 16.6127C13.0035 16.5676 13.0035 16.519 13.0035 16.4739C13.0382 16.1338 13.1006 15.8006 13.2325 15.4813C13.6177 14.5409 14.2493 13.8329 15.1621 13.3817C15.5369 13.1943 15.929 13.0625 16.3489 13.0208C16.4878 13.0069 16.6231 13 16.7619 13C18.9622 13 21.1659 13 23.3661 13C24.6154 13 25.608 13.5275 26.3854 14.4853C26.7844 14.9747 27.0274 15.5369 27.1523 16.1546C27.194 16.3524 27.1974 16.5572 27.1974 16.7619C27.2009 18.9552 27.194 21.1485 27.2009 23.3418C27.2044 24.2372 26.9267 25.0284 26.3819 25.726C25.7954 26.4791 25.0215 26.9476 24.0914 27.1488C23.9526 27.1801 23.8068 27.1593 23.668 27.194C23.6298 27.194 23.5951 27.194 23.557 27.194C23.5431 27.1766 23.5223 27.1801 23.5014 27.1801C23.4806 27.1801 23.4598 27.1766 23.4459 27.194C21.211 27.194 18.976 27.194 16.7411 27.194C16.7272 27.1766 16.7064 27.1801 16.6856 27.1801C16.6647 27.1801 16.6439 27.1766 16.63 27.194C16.5745 27.194 16.519 27.194 16.4635 27.194C16.1303 27.1558 15.8006 27.0933 15.4883 26.9684C14.5443 26.5866 13.8294 25.955 13.3748 25.0354C13.2325 24.7473 13.1319 24.4489 13.0555 24.14C13.0243 24.0047 13.0416 23.8658 13 23.734C13 23.6888 13 23.6403 13 23.5951C13.0174 23.5778 13.0174 23.557 13 23.5396C13.0035 21.2561 13.0035 18.976 13.0035 16.696C13.0243 16.6682 13.0243 16.6405 13.0035 16.6127Z" fill="white"/>
<path d="M20.1074 16.2131C22.2695 16.2374 24.0081 17.9969 23.9839 20.1173C23.9596 22.3072 22.1827 24.0111 20.0762 23.9868C17.9106 23.9626 16.1893 22.2204 16.2067 20.0931C16.224 17.9345 17.98 16.1888 20.1074 16.2131Z" fill="#010140"/>
<path d="M24.2199 14.8008C24.8688 14.8043 25.3998 15.3388 25.3963 15.9843C25.3894 16.6298 24.8515 17.1677 24.2129 17.1607C23.5709 17.1538 23.0295 16.6089 23.0364 15.9738C23.0399 15.3283 23.5778 14.7939 24.2199 14.8008Z" fill="#010140"/>
<path d="M20.09 23.1513C18.4068 23.1478 17.0395 21.7735 17.0464 20.0938C17.0534 18.4072 18.4276 17.0434 20.1073 17.0538C21.7905 17.0642 23.1474 18.4281 23.1439 20.1043C23.1439 21.7874 21.7731 23.1547 20.09 23.1513Z" fill="white"/>
<path d="M24.5565 15.9803C24.5565 16.1643 24.3969 16.3239 24.213 16.3204C24.0325 16.3204 23.8694 16.1539 23.8729 15.9734C23.8729 15.7895 24.0325 15.6333 24.2199 15.6368C24.4073 15.6402 24.56 15.7929 24.5565 15.9803Z" fill="white"/>
</svg>
