<svg width="14" height="14" viewBox="0 0 14 14" fill="none" xmlns="http://www.w3.org/2000/svg">
<path d="M11.6058 8.92509C11.6058 8.56057 11.5817 8.18606 11.5113 7.80566L11.5113 7.80566L11.5106 7.80187C11.3964 7.21044 11.14 6.73946 10.7098 6.44981C10.2864 6.1648 9.77911 6.11265 9.27912 6.17608C8.77752 6.23807 8.3454 6.43348 8.02235 6.79305C7.7068 7.14426 7.5374 7.60538 7.46293 8.12445C7.40859 8.48833 7.38962 8.85185 7.38962 9.20692V9.20716C7.38962 10.637 7.38962 12.0676 7.39326 13.4984C6.76232 13.4958 6.13139 13.4958 5.50045 13.4984C5.50439 10.5806 5.50439 7.6626 5.50044 4.74062C6.09301 4.74495 6.68316 4.74278 7.27266 4.73955C7.27304 4.81569 7.27349 4.89171 7.27394 4.96754L7.27395 4.97008C7.27509 5.16148 7.27621 5.35178 7.27621 5.54302V7.27145L11.1058 8.92581M11.6058 8.92509C11.6058 8.92533 11.6058 8.92557 11.6058 8.92581H11.1058M11.6058 8.92509C11.6058 8.92487 11.6058 8.92464 11.6058 8.92442L11.1058 8.92581M11.6058 8.92509C11.6101 10.4415 11.6104 11.9539 11.6067 13.4698C11.4923 13.4702 11.3779 13.4708 11.2635 13.4714C11.2589 13.4714 11.2568 13.4713 11.2568 13.4713C11.2569 13.4712 11.2586 13.4713 11.2618 13.4716L11.2637 13.8094H11.1058M11.1058 8.92581C11.1104 10.5553 11.1104 12.18 11.1058 13.8094M11.1058 13.8094L11.2637 13.8099" fill="#010140" stroke="#010140"/>
<path d="M2.49997 4.16332C2.50002 4.16398 2.50008 4.16478 2.50016 4.16572L2.83072 4.1662V4.00044M2.49997 4.16332L2.83184 4.50044C2.83838 4.50046 2.84128 4.50062 2.84125 4.50064C2.84122 4.50065 2.83842 4.50053 2.83349 4.49998L2.83164 4.16645H3M2.49997 4.16332C2.49994 4.16172 2.49989 4.16098 2.49987 4.161L2.49997 4.16332ZM2.83072 4.00044L2.83164 4.1662L3 4.16645M2.83072 4.00044C2.95768 4.00044 3 4.02485 3 4.16645M2.83072 4.00044C1.95141 4.00532 1.0721 4.0102 0.19279 4.00044L3 13.8438M3 4.16645C2.9953 7.39384 2.9953 10.6164 3 13.8438M3 13.8438H2.84098L2.84287 13.5003C2.8468 13.4999 2.84897 13.4998 2.84896 13.4998C2.84895 13.4999 2.8462 13.5 2.84013 13.5V13.5006M3 13.8438L2.4999 13.8485C2.49988 13.8484 2.49989 13.8476 2.49998 13.846M3 13.8438L2.84098 13.844M3 13.8438C3 13.9756 2.96238 14 2.84013 14C1.95141 13.9951 1.05799 13.9951 0.169279 14V13.8145L2.84098 13.844M2.84013 13.5006C2.83398 13.5012 2.82493 13.5025 2.81398 13.5048C2.7792 13.5121 2.70277 13.5344 2.62843 13.6024C2.55174 13.6725 2.52039 13.7516 2.50842 13.7975C2.50271 13.8194 2.50076 13.8361 2.50014 13.8438M2.84013 13.5006V13.8438M2.84013 13.5006V13.8438M2.50014 13.8438H2.5C2.5 13.8446 2.49999 13.8454 2.49998 13.846M2.50014 13.8438C2.50012 13.844 2.50011 13.8443 2.50009 13.8445M2.50014 13.8438H2.84013M2.49998 13.846C2.50001 13.8456 2.50005 13.8451 2.50009 13.8445M2.49998 13.846L2.50009 13.8445M2.50009 13.8445L2.84013 13.844M2.84013 13.8438V13.844M2.84013 13.844V14L2.84098 13.844M2.84013 13.844L2.84098 13.844M0.50529 7.79572C0.506096 6.69813 0.506902 5.5995 0.501647 4.5033C1.16888 4.50823 1.83544 4.50577 2.49953 4.50225C2.49546 7.50227 2.49546 10.4984 2.49951 13.4984C1.83522 13.4957 1.16899 13.4957 0.504702 13.4984V13.438V13.4003V13.3909V13.3815V13.3721V13.3627V13.3533V13.3438V13.3344V13.325V13.3156V13.3062V13.2968V13.2874V13.278V13.2685V13.2591V13.2497V13.2403V13.2309V13.2215V13.2121V13.1368V13.0615V12.9862V12.9109V12.8356V12.7603V12.6097V12.6003V12.5909V12.5814V12.572V12.5626V12.5532V12.5438V12.5344V12.525V12.5156V12.5061V12.4967V12.4873V12.4779V12.4685V12.4591V12.4497V12.4403V12.4308V12.4214V12.412V12.4026V12.3932V12.3838V12.3744V12.365V12.3555V12.3461V12.3367V12.3273V12.3179V12.3085V12.2991V12.2897V12.2802V12.2708V12.2614V12.252V12.2426V12.2332V12.2238V12.2144V12.2049V12.1955V12.1861V12.1767V12.1673V12.1579V12.1485V12.1391V12.1296V12.1202V12.1108V12.1014V12.092V12.0826V12.0732V12.0638V12.0544V12.0449V12.0355V12.0261V12.0167V12.0073V11.9979V11.9885V11.9791V11.9696V11.9602V11.9508V11.9414V11.932V11.9226V11.9132V11.9038V11.8943V11.8849V11.8755V11.8661V11.8567V11.7814V11.7061V11.6967V11.6873V11.6779V11.6684V11.659V11.6496V11.6402V11.6308V11.5555V11.4049V11.2543V11.179V11.1414V11.1319V11.1225V11.1131V11.1037V10.8025V10.6519V10.6143V10.6048V10.5954V10.586V10.5766V10.5672V10.5578V10.5484V10.539V10.5295V10.5201V10.5107V10.5013V10.2001V10.1248V10.0495V9.97422V9.89892V9.59773V9.44713V9.29653V9.14593V9.13652V9.12711V9.1177V9.10828V9.09887V9.08946V9.08005V9.07063V9.06122V9.05181V9.0424V9.03299V9.02357V9.01416V9.00475V8.99534C0.504702 8.59572 0.504996 8.19579 0.50529 7.79572ZM2.83072 4.49965C2.82536 4.49899 2.81818 4.4979 2.80972 4.49615C2.77673 4.48935 2.70195 4.4681 2.6285 4.40201C2.5524 4.33352 2.52067 4.25581 2.50846 4.21023C2.50299 4.18984 2.50094 4.17422 2.50022 4.16645H2.83072V4.49965ZM0.16824 13.5C0.166433 13.5 0.165586 13.4999 0.165615 13.4999L0.16824 13.5Z" fill="#010140" stroke="#010140"/>
<path d="M2.49999 1.49157C2.49388 0.938078 2.04043 0.494709 1.49679 0.500048L2.49999 1.49157ZM2.49999 1.49157C2.50204 2.04115 2.04919 2.49731 1.50977 2.49999C0.960917 2.50268 0.5 2.04332 0.5 1.49192C0.5 0.959895 0.947119 0.505502 1.49676 0.500049L2.49999 1.49157Z" fill="#010140" stroke="#010140"/>
</svg>
