<svg width="40" height="40" viewBox="0 0 40 40" fill="none" xmlns="http://www.w3.org/2000/svg">
<circle cx="20" cy="20" r="19.5" stroke="white"/>
<path d="M21.7762 17.543C22.062 17.0904 22.4113 16.7283 22.8468 16.4615C23.5454 16.0279 24.3029 15.9469 25.0877 16.0279C25.6411 16.0803 26.1673 16.2233 26.6346 16.552C27.2923 17.0094 27.6144 17.6955 27.7959 18.4721C27.9637 19.1868 27.9955 19.9157 27.9955 20.6495C28 22.3647 27.9955 24.0847 28 25.7999C28 25.9476 27.9501 25.9714 27.8276 25.9714C26.9748 25.9666 26.1174 25.9666 25.2646 25.9714C25.1376 25.9714 25.1058 25.9428 25.1058 25.8094C25.1104 24.18 25.1104 22.5553 25.1058 20.9258C25.1058 20.5828 25.0832 20.2397 25.0197 19.8967C24.8246 18.8866 24.2031 18.5626 23.3412 18.6722C22.5292 18.7723 22.0892 19.2773 21.9577 20.1968C21.9078 20.5304 21.8896 20.8686 21.8896 21.2069C21.8896 22.7458 21.8896 24.2848 21.8942 25.8237C21.8942 25.9619 21.8579 26 21.7263 26C20.878 25.9952 20.0297 25.9952 19.1815 26C19.0454 26 19 25.9762 19 25.8189C19.0045 22.6887 19.0045 19.5584 19 16.4234C19 16.2757 19.0318 16.2375 19.1769 16.2375C19.9934 16.2471 20.8054 16.2423 21.622 16.2375C21.7399 16.2375 21.7762 16.2709 21.7717 16.3948C21.7717 16.7759 21.7762 17.1571 21.7762 17.543Z" fill="white"/>
<path d="M14.0047 20.9953C14.0047 19.3938 14.0094 17.7924 14 16.1957C14 16.0297 14.0423 15.9956 14.1928 16.0004C15.0721 16.0102 15.9514 16.0053 16.8307 16.0004C16.9577 16.0004 17 16.0249 17 16.1664C16.9953 19.3938 16.9953 22.6164 17 25.8438C17 25.9756 16.9624 26 16.8401 26C15.9514 25.9951 15.058 25.9951 14.1693 26C14.0188 26 14.0047 25.9463 14.0047 25.8145C14.0047 24.2081 14.0047 22.6017 14.0047 20.9953Z" fill="white"/>
<path d="M17 13.4879C17.0041 14.3108 16.3315 14.9959 15.5122 15C14.6848 15.004 14 14.3189 14 13.4919C14 12.6811 14.6726 12.0082 15.4918 12.0001C16.3152 11.992 16.9918 12.6609 17 13.4879Z" fill="white"/>
</svg>
