<svg width="73" height="51" viewBox="0 0 73 51" fill="none" xmlns="http://www.w3.org/2000/svg">
<path d="M0.0131013 33.2436C0.175665 26.9789 1.45587 20.9909 4.7478 15.5167C8.73064 8.87655 14.6033 4.48929 21.939 1.8016C22.6909 1.52492 23.4631 1.28778 24.2352 1.05063C25.8609 0.556567 27.4662 1.10992 28.3603 2.45376C29.2341 3.75808 29.1528 5.39836 28.0758 6.64339C26.9988 7.88843 25.9219 9.13346 24.9668 10.4575C23.3208 12.7105 21.8984 15.0819 20.7807 17.6313C20.5775 18.0858 20.5166 18.2439 21.1262 18.3823C28.6855 20.0423 34.0704 26.6627 34.1314 34.2713C34.172 41.8996 28.7871 48.6583 21.2481 50.4369C10.7424 52.927 1.92324 45.8323 0.297593 36.8404C0.0943884 35.6546 -0.0275406 34.4689 0.0131013 33.2436Z" fill="#6D2E88"/>
<path d="M38.8659 33.7973C38.9878 27.9279 39.9632 22.8094 42.2798 17.9874C45.8968 10.4974 51.8305 5.41843 59.6132 2.25644C60.7512 1.78214 61.9298 1.40665 63.1084 1.05093C64.7137 0.596389 66.2784 1.12998 67.1725 2.4343C68.0869 3.73862 68.026 5.35915 66.949 6.60418C65.0388 8.81758 63.2303 11.0903 61.7266 13.5803C60.9341 14.9044 60.2432 16.268 59.6132 17.6514C59.4304 18.0664 59.3897 18.2443 59.9587 18.3826C66.9896 20.2008 71.2976 24.6078 72.6997 31.5247C74.4066 39.9632 68.6559 48.4413 60.04 50.4571C49.7171 52.8681 41.1012 46.0896 39.2317 37.3348C38.9472 35.9712 38.8456 34.5878 38.8659 33.7973Z" fill="#6D2E88"/>
</svg>
