<svg width="92" height="91" viewBox="0 0 92 91" fill="none" xmlns="http://www.w3.org/2000/svg">
<path d="M36.1204 77.7618C35.7036 77.7618 35.3848 77.7618 35.0415 77.7618C25.5026 77.7618 15.9636 77.7618 6.42468 77.7618C2.40313 77.7618 0 75.3348 0 71.3144C0 56.9976 0 42.7053 0 28.3885C0 24.417 2.42765 21.99 6.40016 21.99C9.39181 21.99 12.3835 21.9655 15.3996 22.0145C16.0617 22.0145 16.1843 21.8184 16.1843 21.2055C16.1598 18.1902 16.1598 15.1503 16.1598 12.135C16.1598 10.7621 16.6502 10.2718 18.048 10.2718C19.7645 10.2718 21.481 10.2718 23.173 10.2718C24.4236 10.2718 24.9386 10.8112 24.9631 12.0614C24.9631 15.1258 24.9876 18.1657 24.9386 21.2301C24.9386 21.8675 25.1102 22.0145 25.7478 22.0391C26.4344 22.0636 26.4344 21.7449 26.4344 21.2301C26.4344 14.8316 26.4344 8.4577 26.4344 2.05927C26.4344 0.441271 26.8758 0 28.4942 0C30.0881 0 31.682 0 33.2759 0C34.7718 0 35.2622 0.465787 35.2622 1.96121C35.2622 8.35964 35.2622 14.7336 35.2622 21.132C35.2622 21.9655 35.6791 22.2842 36.4883 22.0145C36.9297 21.8675 36.709 21.4997 36.709 21.2546C36.7335 16.8419 36.709 12.4537 36.709 8.04095C36.709 6.27586 37.1013 5.88362 38.8424 5.88362C40.4117 5.88362 41.9566 5.88362 43.526 5.88362C45.0709 5.88362 45.5123 6.34941 45.5123 7.91837C45.5123 12.3311 45.5368 16.7193 45.4877 21.132C45.4877 21.7939 45.5613 22.0636 46.346 22.0636C51.7898 22.0145 57.2336 22.0391 62.6774 22.0391C62.9227 22.0391 63.1433 22.0391 63.5112 22.0391C60.7647 18.705 59.6613 15.0277 60.3969 10.8847C60.9609 7.67322 62.5548 5.00108 65.1051 2.94181C70.2301 -1.20124 77.6357 -0.907058 82.4664 3.62823C86.9539 7.82031 88.5478 15.5671 83.3002 22.0391C83.9868 22.0391 84.5753 22.0391 85.1638 22.0391C88.4252 22.0881 91 24.6131 91 27.8737C91.0245 42.5827 91.0245 57.2918 91 71.9763C91 75.3103 88.3762 77.7864 84.9677 77.7864C75.3061 77.7864 65.6446 77.7864 55.983 77.7864C55.6397 77.7864 55.3209 77.7864 54.9041 77.7864C55.5171 79.674 56.1301 81.4881 56.7187 83.3023C56.8658 83.719 57.1601 83.6455 57.4543 83.6455C58.7785 83.6455 60.0781 83.6455 61.4023 83.6455C62.5793 83.6455 63.1188 84.1848 63.1188 85.386C63.1433 86.2441 62.8246 87.3718 63.2414 87.8621C63.7319 88.4259 64.9089 88.0337 65.7917 88.0337C69.5925 88.0582 73.3689 88.0337 77.1698 88.0337C77.4395 88.0337 77.7337 88.0091 78.0035 88.0582C78.7882 88.2053 79.2541 88.6956 79.2541 89.5046C79.2541 90.3136 78.7637 90.8039 77.979 90.951C77.6847 91 77.3659 90.9755 77.0717 90.9755C56.0321 90.9755 34.9925 90.9755 13.9528 90.9755C12.457 90.9755 11.7704 90.5097 11.7459 89.5291C11.7459 88.524 12.4325 88.0582 13.9283 88.0582C18.3422 88.0582 22.7316 88.0582 27.1455 88.0582C27.7095 88.0582 27.9792 87.9601 27.9057 87.3227C27.8566 86.7098 27.8812 86.097 27.8812 85.4841C27.8812 84.1603 28.3961 83.6455 29.6958 83.6455C30.9464 83.6455 32.197 83.6209 33.4476 83.67C34.0116 83.6945 34.2323 83.4984 34.4039 82.959C34.9434 81.2185 35.5319 79.5269 36.1204 77.7618Z" fill="#6D2E88"/>
<path d="M45.4142 66.0191C31.5839 66.0191 17.7782 66.0191 3.94799 66.0436C3.16329 66.0436 2.89355 65.9211 2.89355 65.0385C2.9426 52.83 2.9426 40.646 2.9426 28.4375C2.9426 26.0105 4.04607 24.9318 6.47372 24.9318C9.46537 24.9318 12.457 24.9564 15.4732 24.9073C16.0127 24.9073 16.1843 25.0054 16.1843 25.5938C16.1598 29.0504 16.1598 32.507 16.1843 35.9636C16.1843 36.6255 15.9391 36.6746 15.3996 36.6746C14.8601 36.6746 14.664 36.5765 14.6885 35.9881C14.7375 33.4141 14.713 30.8645 14.713 28.2904C14.713 26.893 14.2226 26.4027 12.8494 26.4027C11.1328 26.4027 9.41632 26.4027 7.72433 26.4027C6.4492 26.4027 5.90972 26.9176 5.90972 28.1678C5.90972 31.4038 5.90972 34.6398 5.90972 37.8758C5.90972 39.0525 6.4492 39.5919 7.65076 39.5919C23.1239 39.5919 38.5971 39.5919 54.0458 39.5919C55.2474 39.5919 55.7868 39.0525 55.7868 37.8513C55.7868 34.6153 55.7868 31.3793 55.7868 28.1433C55.7868 26.9421 55.2474 26.4027 54.0703 26.4027C52.3048 26.4027 50.5147 26.4027 48.7491 26.4027C47.4985 26.4027 46.9836 26.9421 46.9836 28.2169C46.9836 30.7419 46.9836 33.2915 46.9836 35.8165C46.9836 36.3314 47.0326 36.7236 46.2724 36.6991C45.6103 36.6746 45.4877 36.4784 45.4877 35.8656C45.5122 32.4825 45.5122 29.0749 45.4877 25.6918C45.4877 25.0299 45.6839 24.9073 46.2969 24.9073C53.0895 24.9318 59.882 24.9318 66.6499 24.9073C67.0913 24.9073 67.4837 24.9809 67.876 25.1525C71.5298 26.795 75.208 26.795 78.8617 25.1525C79.205 25.0054 79.5238 24.8828 79.9162 24.8828C81.6327 24.9073 83.3492 24.8828 85.0412 24.9073C86.7822 24.9318 88.0329 26.1821 88.0329 27.9227C88.0329 40.4009 88.0329 52.8545 88.0574 65.3327C88.0574 66.1907 87.5669 65.9701 87.1255 65.9701C73.2463 66.0191 59.3425 66.0191 45.4142 66.0191Z" fill="#F6F6F6"/>
<path d="M45.5123 68.9608C59.3915 68.9608 73.2708 68.9608 87.1501 68.9363C87.8857 68.9363 88.2045 69.0834 88.1064 69.8678C88.0329 70.4807 88.1064 71.0936 88.0819 71.7065C88.0574 73.5941 86.8558 74.7954 84.9922 74.8444C84.7715 74.8444 84.5753 74.8444 84.3546 74.8444C58.4597 74.8444 32.5648 74.8444 6.66992 74.8444C3.97253 74.8444 2.94262 73.8393 2.94262 71.1671C2.94262 70.4807 2.6974 69.5246 3.06523 69.1324C3.4821 68.6666 4.43844 68.9853 5.14957 68.9853C18.612 68.9608 32.0499 68.9608 45.5123 68.9608Z" fill="#F6F6F6"/>
<path d="M29.3524 19.7099C29.3524 14.3902 29.3769 9.07038 29.3279 3.75061C29.3279 3.06418 29.475 2.89258 30.1616 2.89258C32.2705 2.94161 32.2705 2.89258 32.2705 5.02539C32.2705 15.2727 32.2705 25.4955 32.295 35.7428C32.295 36.5028 32.1234 36.6989 31.3632 36.6744C29.3524 36.6253 29.3524 36.6499 29.3524 34.6396C29.3524 29.6631 29.3524 24.6865 29.3524 19.7099Z" fill="#F6F6F6"/>
<path d="M71.8977 7.86859C71.8977 9.43755 72.3391 11.1536 71.7751 12.4774C71.2111 13.8258 69.6662 14.7818 68.5627 15.9095C67.5819 16.9147 66.552 17.8707 65.5956 18.9004C65.2278 19.2926 65.0561 19.2191 64.8109 18.8268C60.8384 12.7471 64.1979 4.65711 71.3337 3.11266C71.8241 3.0146 71.9467 3.16169 71.9467 3.65199C71.8977 5.04935 71.9222 6.47123 71.8977 7.86859C71.9222 7.86859 71.9222 7.86859 71.8977 7.86859Z" fill="#F6F6F6"/>
<path d="M78.6901 14.659C80.0878 14.659 81.5101 14.6835 82.9078 14.6345C83.5209 14.61 83.5454 14.8551 83.4473 15.3209C82.1231 22.2587 73.516 25.7889 67.7534 21.7684C67.3856 21.5232 67.2385 21.3761 67.6553 20.9839C69.6661 19.0227 71.6524 17.037 73.6141 15.0267C73.8838 14.7325 74.1781 14.6345 74.5704 14.6345C75.9437 14.659 77.3169 14.659 78.6901 14.659Z" fill="#F6F6F6"/>
<path d="M53.727 83.6211C48.2096 83.6211 42.7903 83.6211 37.2729 83.6211C37.886 81.7334 38.499 79.9193 39.0876 78.0806C39.2102 77.7129 39.4799 77.7619 39.7496 77.7619C43.575 77.7619 47.3759 77.7619 51.2013 77.7619C51.5691 77.7619 51.7898 77.8355 51.9369 78.2522C52.5009 80.0173 53.114 81.7579 53.727 83.6211Z" fill="#F6F6F6"/>
<path d="M42.5696 22.8236C42.5696 27.1628 42.545 31.502 42.5941 35.8412C42.5941 36.5276 42.4224 36.6992 41.7603 36.6747C39.6515 36.6256 39.6515 36.6747 39.6515 34.5419C39.6515 26.2558 39.6515 17.9697 39.627 9.68356C39.627 8.92359 39.7986 8.72747 40.5588 8.75199C42.5696 8.80102 42.5696 8.7765 42.5696 10.7867C42.5696 14.8072 42.5696 18.8032 42.5696 22.8236Z" fill="#F6F6F6"/>
<path d="M22.0204 24.9813C22.0204 28.6095 21.9958 32.2622 22.0449 35.8905C22.0449 36.5279 21.8977 36.6995 21.2357 36.6995C19.0777 36.675 19.0777 36.6995 19.0777 34.5176C19.0777 27.7024 19.0777 20.8872 19.0532 14.072C19.0532 13.3611 19.2249 13.165 19.936 13.1895C21.9958 13.2385 21.9958 13.214 21.9958 15.2733C22.0203 18.4848 22.0204 21.7453 22.0204 24.9813Z" fill="#FEFEFE"/>
<path d="M74.8646 7.3055C74.8646 6.07975 74.8892 4.85399 74.8646 3.65276C74.8401 3.16245 74.9872 3.03988 75.4777 3.11342C79.205 3.70179 82.9077 7.40356 83.4717 11.1299C83.5208 11.5221 83.5453 11.7427 83.0304 11.7427C80.5046 11.7182 77.9544 11.7182 75.4286 11.7427C74.9872 11.7427 74.8646 11.6202 74.8646 11.1789C74.8646 9.87959 74.8646 8.6048 74.8646 7.3055Z" fill="#F6F6F6"/>
<path d="M45.5858 86.5625C50.1713 86.5625 54.7569 86.5625 59.3424 86.5625C59.9064 86.5625 60.2007 86.5625 60.2007 87.298C60.2007 88.0089 59.9309 88.0579 59.3424 88.0579C50.0977 88.0334 40.8776 88.0334 31.6329 88.0579C31.0689 88.0579 30.7747 88.0579 30.7747 87.3225C30.7747 86.6115 31.0444 86.5625 31.6329 86.5625C36.292 86.5625 40.9512 86.5625 45.5858 86.5625Z" fill="#F6F6F6"/>
<path d="M8.80337 32.9965C8.80337 31.9669 8.82789 30.9127 8.80337 29.8831C8.77884 29.4418 8.92597 29.3438 9.36736 29.3193C11.746 29.2212 11.746 29.2212 11.746 31.6237C11.746 33.0946 11.7214 34.5655 11.746 36.0119C11.7705 36.5267 11.5988 36.6738 11.0839 36.6738C8.77884 36.6983 8.80337 36.7228 8.80337 34.4674C8.80337 33.9771 8.80337 33.4868 8.80337 32.9965Z" fill="#F6F6F6"/>
<path d="M52.8442 33.071C52.8442 34.0761 52.8197 35.0812 52.8442 36.0863C52.8442 36.5031 52.7461 36.6502 52.3047 36.6502C49.9016 36.7482 49.9016 36.7728 49.9016 34.3458C49.9016 32.8503 49.9261 31.3549 49.9016 29.8595C49.9016 29.4427 49.9997 29.2957 50.4411 29.2957C52.8442 29.1976 52.8442 29.1731 52.8442 31.6001C52.8442 32.1149 52.8442 32.5807 52.8442 33.071Z" fill="#F6F6F6"/>
<path d="M26.4099 30.7918C26.4099 32.5324 26.3854 34.273 26.4344 36.0135C26.4589 36.6509 26.1647 36.6754 25.6742 36.6754C25.1838 36.6754 24.9141 36.6754 24.9141 36.0135C24.9631 32.5324 24.9631 29.0513 24.9141 25.5701C24.9141 24.9327 25.1838 24.9082 25.6742 24.9082C26.1647 24.9082 26.4344 24.9082 26.4344 25.5701C26.3854 27.3107 26.4099 29.0513 26.4099 30.7918Z" fill="#FEFEFE"/>
<path d="M36.6845 30.7918C36.6845 32.5324 36.66 34.273 36.7091 36.0135C36.7336 36.6509 36.4393 36.6754 35.9489 36.6754C35.4585 36.6754 35.1887 36.6754 35.1887 36.0135C35.2378 32.5324 35.2378 29.0513 35.1887 25.5701C35.1887 24.9327 35.4585 24.9082 35.9489 24.9082C36.4393 24.9082 36.7091 24.9082 36.7091 25.5701C36.66 27.3107 36.6845 29.0513 36.6845 30.7918Z" fill="#FEFEFE"/>
<path d="M5.86065 52.8536C5.83613 50.7208 7.30743 48.9312 9.44082 48.4654C11.4026 48.0486 13.5114 49.1273 14.2961 51.064C14.5168 51.6278 14.8601 51.8975 15.3996 52.1181C19.9851 54.0058 24.5707 55.918 29.1563 57.8547C29.6467 58.0508 29.8919 58.0263 30.2352 57.5605C31.9027 55.2561 35.066 55.0845 36.9787 57.1682C37.4201 57.6585 37.6408 57.6095 38.1067 57.2418C42.8394 53.6626 47.572 50.1324 52.3293 46.5777C52.7216 46.2835 52.9423 45.9648 53.0894 45.4991C53.6534 43.734 55.3454 42.5327 57.1845 42.5082C59.0482 42.4837 60.6911 43.5869 61.3532 45.3765C61.5249 45.8423 61.7456 46.1364 62.187 46.3816C66.8951 49.1028 71.5788 51.8485 76.2624 54.5942C76.7038 54.8393 76.949 54.9374 77.3659 54.4471C78.6655 52.8046 80.7989 52.3388 82.6381 53.2213C84.3546 54.0303 85.409 55.9915 85.1147 57.8302C84.796 59.8404 83.153 61.3848 81.1668 61.581C79.156 61.7771 77.2923 60.6004 76.6057 58.6392C76.4586 58.2224 76.2379 57.9772 75.8946 57.7811C71.1374 55.0109 66.4047 52.2652 61.672 49.495C61.2551 49.2499 61.059 49.2499 60.7157 49.6421C58.852 51.873 55.9339 51.9465 53.9477 49.7892C53.6289 49.4215 53.4572 49.446 53.0894 49.7157C48.2587 53.3439 43.4279 56.9721 38.5726 60.6004C38.2783 60.821 38.0821 61.0907 37.9595 61.4584C37.371 63.2725 35.7771 64.4983 33.938 64.5473C32.0743 64.6208 30.4069 63.5667 29.6957 61.7771C29.4996 61.3113 29.2298 61.0661 28.7884 60.87C24.2029 58.9824 19.6173 57.0947 15.0318 55.158C14.4432 54.9129 14.149 54.9129 13.7321 55.4767C12.6041 57.0457 10.6179 57.6095 8.82778 56.9966C7.11126 56.3838 5.88518 54.6922 5.86065 52.8536Z" fill="#6D2E88"/>
<path d="M74.1045 27.873C76.2134 27.873 78.3222 27.873 80.4311 27.873C81.5346 27.873 82.1721 28.4124 82.1967 29.2949C82.2212 30.2265 81.5346 30.7903 80.4066 30.7903C76.5812 30.7903 72.7803 30.8149 68.9549 30.7903C68.3419 30.7903 67.9495 30.9619 67.5327 31.4032C66.0123 32.9722 64.4429 34.5411 62.8735 36.0856C62.0889 36.8701 61.157 36.8946 60.544 36.1837C60.029 35.5953 60.029 34.8108 60.6176 34.1979C62.5302 32.2367 64.492 30.3 66.4292 28.3633C66.8215 27.9711 67.312 27.8976 67.8515 27.8976C69.9358 27.873 72.0201 27.873 74.1045 27.873Z" fill="#6D2E88"/>
<path d="M15.375 41.0636C17.9743 41.0636 20.5736 41.0636 23.1484 41.0636C24.2764 41.0636 24.963 41.6519 24.9385 42.559C24.9139 43.4415 24.2519 43.9809 23.1729 43.9809C17.9743 43.9809 12.8002 43.9809 7.60164 43.9809C6.52268 43.9809 5.8606 43.417 5.8606 42.51C5.8606 41.6029 6.49816 41.0391 7.57711 41.0391C10.2009 41.0636 12.7757 41.0636 15.375 41.0636Z" fill="#6D2E88"/>
<path d="M63.8546 64.5473C62.2607 64.5473 60.6913 64.5473 59.0974 64.5473C57.9448 64.5473 57.2827 64.008 57.2582 63.1009C57.2337 62.1693 57.8958 61.6055 59.0483 61.6055C62.2607 61.6055 65.4485 61.6055 68.6608 61.6055C69.8133 61.6055 70.4754 62.1693 70.4509 63.1009C70.4264 64.008 69.7643 64.5473 68.6118 64.5473C67.0179 64.5473 65.4239 64.5473 63.8546 64.5473Z" fill="#6D2E88"/>
<path d="M66.8462 57.2179C67.5573 57.2179 68.2439 57.1934 68.9551 57.2179C69.8624 57.2424 70.4754 57.8798 70.4509 58.7133C70.4264 59.4978 69.8378 60.1107 68.9551 60.1352C67.4838 60.1597 66.037 60.1597 64.5657 60.1352C63.7074 60.1107 63.1189 59.4733 63.1189 58.6888C63.1189 57.8798 63.7074 57.267 64.5657 57.2179C65.3258 57.1934 66.086 57.2179 66.8462 57.2179Z" fill="#6D2E88"/>
<path d="M28.5677 44.0041C28.347 44.0041 28.1508 44.0041 27.9301 44.0041C27.0228 43.955 26.4098 43.3421 26.4343 42.5086C26.4588 41.6996 27.0473 41.1358 27.9056 41.0867C28.3225 41.0622 28.7639 41.0622 29.1807 41.0867C30.1861 41.1113 30.8237 41.6751 30.8237 42.5331C30.8237 43.3912 30.2106 43.9795 29.2053 44.0286C29.0091 44.0041 28.7884 44.0041 28.5677 44.0041Z" fill="#6D2E88"/>
<path d="M11.7705 73.3481C10.3728 73.3481 8.97502 73.3481 7.55276 73.3481C6.49833 73.3481 5.83624 72.7352 5.86077 71.8281C5.88529 70.9701 6.52285 70.4062 7.52824 70.4062C10.3237 70.4062 13.1437 70.4062 15.9392 70.4062C16.9446 70.4062 17.5821 70.9946 17.5821 71.8772C17.5821 72.7352 16.9446 73.3236 15.9392 73.3481C14.566 73.3726 13.1682 73.3481 11.7705 73.3481Z" fill="#6D2E88"/>
<path d="M21.2849 73.3481C19.789 73.3481 19.1024 72.9068 19.1024 71.9017C19.0779 70.8966 19.789 70.4062 21.2603 70.4062C22.8052 70.4062 23.5163 70.872 23.4918 71.9017C23.4673 72.9068 22.7807 73.3481 21.2849 73.3481Z" fill="#6D2E88"/>
<path d="M58.7049 46.9462C58.7049 47.7307 58.0428 48.3926 57.2581 48.3926C56.4244 48.3926 55.7623 47.7062 55.7868 46.8727C55.8113 46.0882 56.4979 45.4508 57.2826 45.4753C58.0673 45.4998 58.7049 46.1617 58.7049 46.9462Z" fill="#FBFBFB"/>
<path d="M11.746 52.831C11.746 53.6155 11.0839 54.2774 10.2747 54.2774C9.44096 54.2774 8.77887 53.591 8.80339 52.7574C8.82792 51.9484 9.51452 51.3356 10.2992 51.3601C11.1084 51.3601 11.746 52.0465 11.746 52.831Z" fill="#FCFCFC"/>
<path d="M82.1968 57.1931C82.1968 57.9776 81.5592 58.6395 80.7745 58.6641C79.9408 58.6886 79.2542 58.0021 79.2787 57.1686C79.3032 56.3841 79.9653 55.7222 80.75 55.7468C81.5347 55.7468 82.1968 56.4087 82.1968 57.1931Z" fill="#FBFBFB"/>
<path d="M35.2133 60.1591C35.2133 60.9436 34.5512 61.6055 33.742 61.6055C32.9082 61.6055 32.2462 60.8945 32.2707 60.0855C32.2952 59.3011 32.9818 58.6637 33.7665 58.6882C34.6002 58.7127 35.2378 59.3746 35.2133 60.1591Z" fill="#FBFBFB"/>
</svg>
