<svg width="18" height="14" viewBox="0 0 18 14" fill="none" xmlns="http://www.w3.org/2000/svg">
<path d="M2.07092 12.8807C3.38169 12.6921 4.60061 12.1967 5.74445 11.3724L6.90416 10.5367L5.4764 10.4674C4.54793 10.4223 3.81432 10.1047 3.21431 9.51319C3.0689 9.36948 2.941 9.21755 2.83051 9.05487C3.13518 9.04593 3.44482 9.00697 3.76296 8.92671L3.75401 7.95492C2.32512 7.6223 1.54389 6.62446 1.30253 5.69951C1.5221 5.76183 1.74735 5.80707 1.97845 5.83462C2.06413 5.846 2.15963 5.85033 2.24726 5.8543C2.27927 5.85575 2.31023 5.85716 2.33928 5.85884L4.13731 5.96298L2.65028 4.94685C1.91939 4.44742 1.48935 3.83961 1.31328 3.08068L1.31316 3.08018C1.18891 2.54713 1.21106 2.03506 1.3779 1.53118C3.38214 3.53753 5.86127 4.65109 8.83111 4.8411L9.48034 4.88264L9.35343 4.24458C9.26181 3.784 9.24981 3.36355 9.33493 2.95326C9.67424 1.33009 11.2677 0.260435 13.029 0.545908L13.0299 0.546051C13.673 0.649095 14.2216 0.914499 14.6812 1.3428L14.6812 1.34281L14.6841 1.34546C14.7748 1.42867 14.8953 1.51491 15.0559 1.55745C15.2159 1.59986 15.3638 1.58504 15.4852 1.55773L15.4871 1.5573C15.7296 1.50178 15.969 1.43708 16.2062 1.36173C16.0482 1.50325 15.8714 1.63348 15.6747 1.75447L14.1695 2.68035H15.9367C16.1272 2.68035 16.3016 2.6578 16.4591 2.62776C16.3108 2.75471 16.1576 2.873 15.9961 2.98262L15.9889 2.98751L15.9819 2.99265C15.9122 3.04358 15.8217 3.12253 15.755 3.24415C15.6863 3.36952 15.6664 3.49669 15.6664 3.60746V3.61497L15.6666 3.62248C15.7295 5.71212 15.1246 7.6218 13.9092 9.36804L13.909 9.36834C12.8301 10.9209 11.398 12.0623 9.59306 12.7821C8.62438 13.1668 7.60962 13.385 6.55393 13.466L2.07092 12.8807ZM2.07092 12.8807C2.31719 12.9691 2.56641 13.0468 2.81923 13.114L2.82498 13.1156L2.82497 13.1156C4.03779 13.4536 5.28255 13.5632 6.55378 13.466L2.07092 12.8807ZM16.7586 2.56033C16.7742 2.55652 16.7899 2.55269 16.8058 2.54883C16.8481 2.53854 16.8913 2.52805 16.935 2.5173C16.9352 2.51726 16.9353 2.51722 16.9355 2.51718C17.0947 2.47803 17.2617 2.43544 17.4258 2.38636C17.3256 2.49565 17.2224 2.60114 17.1163 2.7039C16.8557 2.95723 16.5817 3.18946 16.2769 3.39634C16.2018 3.45123 16.1664 3.50612 16.1664 3.60746C16.2327 5.81145 15.592 7.82545 14.3196 9.65367L16.7586 2.56033Z" fill="#010140" stroke="#010140"/>
</svg>
