<svg width="40" height="40" viewBox="0 0 40 40" fill="none" xmlns="http://www.w3.org/2000/svg">
<circle cx="20" cy="20" r="19.5" stroke="white"/>
<path d="M18.172 11C17.8058 12.19 17.4625 13.4029 17.0964 14.5929C17.0735 14.7074 17.0506 14.7989 17.0506 14.9362C17.0506 15.6914 17.0506 16.4237 17.0506 17.1789C17.0506 17.3162 17.0048 17.3391 16.8904 17.3391C16.6844 17.3391 16.4556 17.3391 16.2496 17.3391C16.1352 17.3391 16.1123 17.3162 16.1123 17.2018C16.1123 16.4695 16.1123 15.7372 16.1123 14.982C16.1123 14.5929 15.975 14.2268 15.8606 13.8606C15.5631 12.8766 15.2427 11.9383 14.8994 11C15.2427 11 15.5631 11 15.9064 11C15.975 11.0687 15.9979 11.1373 15.9979 11.2288C16.181 11.8696 16.3412 12.5104 16.5242 13.1741C16.5471 13.2427 16.57 13.3343 16.57 13.38C16.57 13.3571 16.57 13.3114 16.5929 13.2656C16.776 12.5562 16.9591 11.8467 17.1421 11.1602C17.165 11.1144 17.165 11.0687 17.2108 11.0229C17.5312 11 17.8516 11 18.172 11Z" fill="white"/>
<path d="M20.1172 17.8203C21.2843 17.8203 22.5888 17.8203 23.8703 17.889C24.3738 17.9119 24.8773 17.9347 25.3808 18.0263C26.0902 18.1636 26.6165 18.7128 26.7767 19.4223C26.914 20.1317 26.9827 20.8411 26.9827 21.5506C27.0056 22.7406 27.0285 23.9535 26.8912 25.1435C26.8454 25.5554 26.7996 25.9902 26.5937 26.3793C26.2962 26.9514 25.8385 27.2718 25.1748 27.3633C23.9848 27.5006 22.8176 27.5464 21.6276 27.5464C19.8426 27.5693 18.0576 27.5693 16.2725 27.4778C15.7233 27.4549 15.1741 27.432 14.6248 27.3176C13.8925 27.1803 13.3662 26.631 13.206 25.8987C13.0687 25.2121 13 24.5256 13 23.8391C13.0229 22.649 13 21.4361 13.1373 20.2232C13.1831 19.8113 13.2288 19.3994 13.4119 19.0103C13.7323 18.3467 14.2816 18.0492 15.0139 17.9805C16.6845 17.8203 18.3551 17.8203 20.1172 17.8203Z" fill="white"/>
<path d="M23.0235 16.8128C22.8633 16.973 22.726 17.1103 22.5658 17.2019C22.337 17.3392 22.0852 17.4307 21.8106 17.3392C21.6275 17.2705 21.5131 17.1561 21.4673 16.9501C21.4216 16.7213 21.3987 16.4924 21.3987 16.2636C21.3987 15.0964 21.3987 13.9293 21.3987 12.7622C21.3987 12.6249 21.4445 12.602 21.5589 12.602C21.742 12.602 21.925 12.602 22.131 12.602C22.2454 12.602 22.2683 12.6478 22.2683 12.7393C22.2683 13.7691 22.2683 14.8218 22.2683 15.8516C22.2683 16.0118 22.2683 16.1949 22.2912 16.3551C22.3141 16.5611 22.4285 16.6526 22.6345 16.5611C22.8862 16.4695 23.0235 16.2407 23.0235 15.9661C23.0235 14.8905 23.0235 13.8149 23.0235 12.7393C23.0235 12.6249 23.0464 12.5791 23.1608 12.5791C23.3439 12.602 23.5499 12.5791 23.7329 12.5791C23.8245 12.5791 23.8703 12.602 23.8703 12.6935C23.8703 14.181 23.8703 15.6686 23.8703 17.179C23.8703 17.2476 23.8703 17.2934 23.7787 17.2934C23.5728 17.2934 23.3439 17.2934 23.1379 17.2934C23.0464 17.2934 23.0235 17.2705 23.0235 17.179C23.0235 17.0874 23.0235 16.973 23.0235 16.8128Z" fill="white"/>
<path d="M18.1949 14.8905C18.1949 14.5015 18.172 14.0438 18.2407 13.5632C18.3322 12.8995 18.9272 12.4876 19.568 12.5563C20.2775 12.6249 20.6665 13.1284 20.6894 13.8378C20.7123 14.593 20.7123 15.3253 20.6894 16.0806C20.6665 16.6069 20.4834 17.0646 19.9571 17.2706C19.2248 17.5452 18.378 17.2477 18.2407 16.3094C18.2407 16.2407 18.2178 16.1721 18.2178 16.1263C18.172 15.7602 18.1949 15.3482 18.1949 14.8905Z" fill="white"/>
<path d="M21.147 21.3666C21.3529 21.1377 21.536 20.9547 21.7878 20.886C22.2912 20.7487 22.6574 21.0233 22.7489 21.5726C22.7718 21.8243 22.7947 22.0531 22.7947 22.3049C22.7947 23.083 22.7947 23.8382 22.7947 24.6163C22.7947 24.7536 22.7718 24.8909 22.7489 25.0282C22.6116 25.669 22.0395 25.7834 21.5589 25.4859C21.4216 25.3943 21.3072 25.2799 21.2156 25.1655C21.1699 25.1884 21.1928 25.2113 21.1928 25.2342C21.1928 25.5774 21.1928 25.5774 20.8495 25.5774C20.6893 25.5774 20.4833 25.6232 20.3918 25.5545C20.2774 25.463 20.3689 25.2342 20.3689 25.074C20.3689 23.2203 20.3689 21.3437 20.3689 19.49C20.3689 19.3527 20.3918 19.307 20.5291 19.3298C20.6893 19.3527 20.8724 19.3527 21.0554 19.3298C21.1928 19.3298 21.2156 19.3756 21.2156 19.5129C21.2156 20.0622 21.2156 20.6343 21.2156 21.1835C21.147 21.2293 21.147 21.2751 21.147 21.3666Z" fill="#010140"/>
<path d="M23.4583 23.2438C23.4583 22.809 23.4125 22.3513 23.4812 21.9165C23.5498 21.413 23.916 21.0011 24.3966 20.9096C25.0374 20.7951 25.5408 21.0011 25.8155 21.5274C25.9299 21.7334 25.9528 21.9851 25.9756 22.214C25.9985 22.5802 25.9756 22.9463 25.9985 23.3125C25.9985 23.404 25.9528 23.4269 25.8841 23.4269C25.4264 23.4269 24.9458 23.4269 24.4881 23.4269C24.3737 23.4269 24.3279 23.4498 24.3279 23.5871C24.3508 23.8846 24.3279 24.1592 24.3508 24.4567C24.3737 24.7542 24.5339 24.9144 24.7627 24.9144C24.9916 24.9144 25.1289 24.7771 25.1518 24.5254C25.1747 24.3881 25.1518 24.2508 25.1518 24.1134C25.1518 24.0448 25.1747 23.999 25.2662 23.999C25.4951 23.999 25.701 23.999 25.9299 23.999C25.9756 23.999 26.0443 23.9761 26.0214 24.0677C25.9985 24.411 26.0443 24.7542 25.8612 25.0517C25.6324 25.4865 25.2662 25.6696 24.7856 25.6696C24.305 25.6696 23.8931 25.4865 23.6643 25.0288C23.5498 24.8229 23.5041 24.5711 23.5041 24.3423C23.4354 23.9761 23.4583 23.61 23.4583 23.2438Z" fill="#010140"/>
<path d="M18.7212 25.0738C18.5152 25.3027 18.3092 25.4857 18.0575 25.5773C17.6227 25.7604 17.2565 25.5544 17.165 25.0967C17.1421 24.9136 17.1421 24.7305 17.1421 24.5475C17.1421 23.4032 17.1421 22.2361 17.1421 21.0918C17.1421 20.9774 17.165 20.9316 17.3023 20.9316C17.4625 20.9545 17.6456 20.9545 17.8286 20.9316C17.9659 20.9316 18.0117 20.9545 18.0117 21.0918C18.0117 22.1445 18.0117 23.1972 18.0117 24.2728C18.0117 24.4102 18.0117 24.5246 18.0117 24.6619C18.0346 24.8679 18.149 24.9365 18.3321 24.8679C18.5838 24.7763 18.744 24.5475 18.744 24.2728C18.744 23.2201 18.744 22.1445 18.744 21.0918C18.744 20.9545 18.7669 20.9316 18.9042 20.9316C19.0873 20.9316 19.2933 20.9316 19.4764 20.9316C19.5679 20.9316 19.5908 20.9545 19.5908 21.0461C19.5908 22.5336 19.5908 24.0211 19.5908 25.4857C19.5908 25.5773 19.5679 25.6002 19.4764 25.6002C19.2704 25.6002 19.0644 25.6002 18.8356 25.6002C18.744 25.6002 18.7212 25.5773 18.7212 25.4857C18.7212 25.3484 18.7212 25.234 18.7212 25.0738Z" fill="#010140"/>
<path d="M15.9979 22.9001C15.9979 23.7469 15.9979 24.5707 15.9979 25.4175C15.9979 25.5319 15.975 25.5777 15.8377 25.5777C15.6317 25.5548 15.4258 25.5777 15.1969 25.5777C15.0825 25.5777 15.0367 25.5548 15.0367 25.4175C15.0367 24.1359 15.0367 22.8544 15.0367 21.5728C15.0367 21.1609 15.0367 20.7489 15.0367 20.337C15.0367 20.2226 15.0138 20.1997 14.8994 20.1997C14.6477 20.1997 14.4188 20.1997 14.1671 20.1997C14.0527 20.1997 14.0298 20.1539 14.0298 20.0624C14.0298 19.8564 14.0298 19.6734 14.0298 19.4674C14.0298 19.353 14.0527 19.3301 14.1671 19.3301C15.0596 19.3301 15.9521 19.3301 16.8446 19.3301C16.9362 19.3301 16.9819 19.353 16.9819 19.4445C16.9819 19.6505 16.9819 19.8564 16.9819 20.0853C16.9819 20.1997 16.9591 20.2226 16.8446 20.2226C16.6158 20.2226 16.364 20.2226 16.1352 20.2226C15.975 20.2226 15.975 20.2684 15.975 20.4057C15.9979 21.2295 15.9979 22.0534 15.9979 22.9001Z" fill="#010140"/>
<path d="M19.8654 15.0509C19.8425 15.3942 19.8883 15.8061 19.8425 16.218C19.8197 16.4011 19.751 16.5384 19.5679 16.6071C19.3391 16.6757 19.156 16.5613 19.1102 16.3325C19.0645 16.1952 19.0645 16.0578 19.0645 15.9205C19.0645 15.3026 19.0645 14.6847 19.0645 14.0669C19.0645 13.9295 19.0645 13.8151 19.0873 13.6778C19.1331 13.449 19.2704 13.3574 19.4764 13.3574C19.6595 13.3574 19.7968 13.4718 19.8425 13.7007C19.8654 13.8609 19.8883 14.044 19.8883 14.227C19.8425 14.4559 19.8654 14.7076 19.8654 15.0509Z" fill="#010140"/>
<path d="M21.1471 23.2441C21.1471 22.8093 21.1471 22.3974 21.1471 21.9626C21.1471 21.8024 21.2386 21.6879 21.4446 21.6422C21.6277 21.5964 21.765 21.6422 21.8336 21.7795C21.9023 21.8939 21.9252 22.0083 21.9252 22.1227C21.9252 22.878 21.9252 23.6332 21.9252 24.3884C21.9252 24.4341 21.9252 24.4799 21.9023 24.5257C21.8794 24.6859 21.8107 24.8461 21.6277 24.8689C21.4446 24.9147 21.2844 24.8232 21.17 24.7087C21.1242 24.663 21.1471 24.6172 21.1471 24.5486C21.1471 24.1137 21.1471 23.6789 21.1471 23.2441Z" fill="white"/>
<path d="M24.6941 22.6947C24.2593 22.6947 24.2593 22.6947 24.2822 22.2599C24.2822 22.1684 24.305 22.054 24.3279 21.9624C24.3737 21.7336 24.511 21.6191 24.717 21.6191C24.9229 21.6191 25.0602 21.7564 25.106 21.9853C25.1289 22.1913 25.1289 22.3972 25.1289 22.6032C25.1289 22.6947 25.0831 22.6947 25.0145 22.6947C24.9001 22.6947 24.8085 22.6947 24.6941 22.6947Z" fill="white"/>
</svg>
